<?xml version="1.0"?>
<svg xmlns="http://www.w3.org/2000/svg" height="512px" viewBox="0 0 448 448.00354" width="512px"><g><path d="m48 384.003906h32v64h-32zm0 0" data-original="#000000" class="active-path" data-old_color="#ffffff" fill="#ffffff"/><path d="m128 384.003906h64v32h-64zm0 0" data-original="#000000" class="active-path" data-old_color="#ffffff" fill="#ffffff"/><path d="m224 448.003906v-96.800781c-15.199219 3.101563-30.796875-2.898437-40-15.398437-13 17.699218-37.898438 21.5-55.597656 8.5-3.199219-2.300782-6-5.101563-8.402344-8.300782-13.296875 17.699219-38.296875 21.300782-56 8-3-2.300781-5.699219-5-8-8-9.296875 12.398438-24.796875 18.300782-40 15.199219v96.800781h16v-72c0-4.398437 3.601562-8 8-8h48c4.402344 0 8 3.601563 8 8v72zm-112-72c0-4.398437 3.601562-8 8-8h80c4.402344 0 8 3.601563 8 8v48c0 4.398438-3.597656 8-8 8h-80c-4.398438 0-8-3.601562-8-8zm0 0" data-original="#000000" class="active-path" data-old_color="#ffffff" fill="#ffffff"/><path d="m240 312.003906v-22.898437l-14-49.101563h-18v32c0 8.800782-7.199219 16-16 16h-144c-8.796875 0-16-7.199218-16-16v-32h-18l-14 49.101563v22.898437c0 13.300782 10.703125 24 24 24 13.300781 0 24-10.699218 24-24 0-4.398437 3.601562-8 8-8 4.402344 0 8 3.601563 8 8 0 13.300782 10.703125 24 24 24 13.300781 0 24-10.699218 24-24 0-4.398437 3.601562-8 8-8 4.402344 0 8 3.601563 8 8 0 13.300782 10.703125 24 24 24 13.300781 0 24-10.699218 24-24 0-4.398437 3.601562-8 8-8 4.402344 0 8 3.601563 8 8 0 13.300782 10.703125 24 24 24 13.300781 0 24-10.699218 24-24zm0 0" data-original="#000000" class="active-path" data-old_color="#ffffff" fill="#ffffff"/><path d="m48 208.003906h144v64h-144zm0 0" data-original="#000000" class="active-path" data-old_color="#ffffff" fill="#ffffff"/><path d="m408 224.003906c0-8.398437-.597656-16.800781-1.699219-25.101562l-15.800781 2.203125c1 7.597656 1.5 15.296875 1.5 22.898437.101562 81.101563-57.898438 150.699219-137.699219 165.300782l2.902344 15.699218c87.398437-15.898437 150.898437-92.101562 150.796875-181zm0 0" data-original="#000000" class="active-path" data-old_color="#ffffff" fill="#ffffff"/><path d="m47 173.804688 15.402344 4.398437c22.898437-80.398437 101.5-131.800781 184.300781-120.597656l2.097656-15.902344c-8.199219-1.097656-16.5-1.699219-24.800781-1.699219-82.199219.199219-154.398438 54.699219-177 133.800782zm0 0" data-original="#000000" class="active-path" data-old_color="#ffffff" fill="#ffffff"/><path d="m428.402344 185.503906c20.097656 107.199219-45.902344 211.699219-151.402344 239.699219l4.101562 15.5c113.5-30.097656 184.601563-142.699219 163-258.097656zm0 0" data-original="#000000" class="active-path" data-old_color="#ffffff" fill="#ffffff"/><path d="m224 16.003906c12.902344 0 25.800781 1.199219 38.5 3.601563l2.902344-15.703125c-121.699219-22.898438-238.800782 57.300781-261.601563 179.101562-.5 2.898438-1 5.800782-1.398437 8.699219l15.800781 2.300781c15.296875-102.101562 102.699219-177.601562 205.796875-178zm0 0" data-original="#000000" class="active-path" data-old_color="#ffffff" fill="#ffffff"/><path d="m360 .00390625c-48.597656 0-88 39.39843775-88 87.99999975 0 48.601563 39.402344 88 88 88 48.601562 0 88-39.398437 88-88 0-48.601562-39.398438-87.99999975-88-87.99999975zm0 159.99999975c-39.796875 0-72-32.199218-72-72 0-39.800781 32.203125-72 72-72 39.800781 0 72 32.199219 72 72-.097656 39.699219-32.296875 71.898438-72 72zm0 0" data-original="#000000" class="active-path" data-old_color="#ffffff" fill="#ffffff"/><path d="m360 32.003906c-30.898438 0-56 25.101563-56 56 0 30.898438 25.101562 56 56 56 30.902344 0 56-25.101562 56-56 0-30.898437-25.097656-56-56-56zm-32 64h-16v-16h16zm32-16c13.300781.101563 23.902344 10.898438 23.800781 24.199219-.097656 10-6.398437 19-15.800781 22.402344v9.398437h-16v-9.398437c-9.597656-3.402344-15.898438-12.402344-16-22.601563h16c0 4.398438 3.601562 8 8 8 4.402344 0 8-3.601562 8-8 0-4.398437-3.597656-8-8-8-13.296875-.101562-23.898438-10.898437-23.796875-24.199218.097656-10 6.398437-19 15.796875-22.402344v-9.398438h16v9.398438c9.601562 3.402344 15.902344 12.402344 16 22.601562h-16c0-4.398437-3.597656-8-8-8-4.398438 0-8 3.601563-8 8 0 4.398438 3.601562 8 8 8zm32 16v-16h16v16zm0 0" data-original="#000000" class="active-path" data-old_color="#ffffff" fill="#ffffff"/></g> </svg>
