<?xml version="1.0" encoding="utf-8"?>
<!-- Generator: Adobe Illustrator 16.0.0, SVG Export Plug-In . SVG Version: 6.00 Build 0)  -->
<!DOCTYPE svg PUBLIC "-//W3C//DTD SVG 1.1//EN" "http://www.w3.org/Graphics/SVG/1.1/DTD/svg11.dtd">
<svg version="1.1" id="Capa_1" xmlns="http://www.w3.org/2000/svg" xmlns:xlink="http://www.w3.org/1999/xlink" x="0px" y="0px"
	 width="1000px" height="1000px" viewBox="0 0 1000 1000" enable-background="new 0 0 1000 1000" xml:space="preserve">
<g>
	<path fill="#2D2D2D" d="M596.774,338.709h19.387c23.613-36.016,33.403-78.677,27.161-122.532
		c-10.646-74.952-69.937-136.29-144.58-149.016c-119.355-20.322-222.129,79.484-206.936,198.081
		c9.532,74.371,67.419,135.226,140.822,150.468c34.484,7.161,68.113,3.516,99.613-8.871v-3.613
		C532.258,367.597,561.146,338.709,596.774,338.709z"/>
</g>
<path fill="#FFFFFF" d="M467.742,193.548c8.887,0,16.129,7.242,16.129,16.129h32.258c0-21-13.532-38.742-32.258-45.419v-35.226
	h-32.258v35.226c-18.728,6.678-32.26,24.419-32.26,45.419c0,26.678,21.711,48.387,48.389,48.387c8.887,0,16.129,7.242,16.129,16.129
	c0,8.887-7.242,16.129-16.129,16.129c-8.889,0-16.129-7.242-16.129-16.129h-32.26c0,21,13.532,38.742,32.26,45.419v35.226h32.258
	v-35.226c18.726-6.678,32.258-24.419,32.258-45.419c0-26.677-21.71-48.387-48.387-48.387c-8.889,0-16.129-7.242-16.129-16.129
	C451.613,200.791,458.854,193.548,467.742,193.548z"/>
<polygon fill="#2D2D2D" points="64.516,161.291 96.774,161.291 96.774,96.774 161.291,96.774 161.291,64.516 64.516,64.516 "/>
<polygon fill="#2D2D2D" points="96.774,322.581 64.516,322.581 64.516,419.354 161.291,419.354 161.291,387.097 96.774,387.097 "/>
<polygon fill="#2D2D2D" points="838.71,161.291 870.968,161.291 870.968,64.516 774.193,64.516 774.193,96.774 838.71,96.774 "/>
<path fill="#2D2D2D" d="M935.484,324.209V0H0v483.871h516.129v435.482c0,44.469,36.178,80.646,80.646,80.646h322.58
	c44.468,0,80.646-36.178,80.646-80.646V403.226C1000,364.291,972.242,331.709,935.484,324.209z M516.129,403.226v48.389H32.258
	V32.258h870.968v290.323H596.774C552.307,322.581,516.129,358.758,516.129,403.226z M967.742,919.354
	c0,26.679-21.71,48.389-48.389,48.389H596.774c-26.679,0-48.389-21.71-48.389-48.389V403.226c0-26.677,21.71-48.387,48.389-48.387
	h322.579c26.679,0,48.389,21.709,48.389,48.387V919.354z"/>
<path fill="#2D2D2D" d="M838.71,935.483h96.774V709.678H838.71V935.483z M870.968,741.936h32.258v161.29h-32.258V741.936z"/>
<path fill="#2D2D2D" d="M709.678,935.483h96.773V838.71h-96.773V935.483z M741.936,870.968h32.259v32.258h-32.259V870.968z"/>
<path fill="#2D2D2D" d="M580.646,935.483h96.772V838.71h-96.772V935.483z M612.903,870.968h32.258v32.258h-32.258V870.968z"/>
<path fill="#2D2D2D" d="M709.678,806.451h96.773v-96.773h-96.773V806.451z M741.936,741.936h32.259v32.259h-32.259V741.936z"/>
<path fill="#2D2D2D" d="M580.646,806.451h96.772v-96.773h-96.772V806.451z M612.903,741.936h32.258v32.259h-32.258V741.936z"/>
<path fill="#2D2D2D" d="M709.678,677.419h96.773v-96.772h-96.773V677.419z M741.936,612.903h32.259v32.258h-32.259V612.903z"/>
<path fill="#2D2D2D" d="M838.71,677.419h96.774v-96.772H838.71V677.419z M870.968,612.903h32.258v32.258h-32.258V612.903z"/>
<path fill="#2D2D2D" d="M580.646,677.419h96.772v-96.772h-96.772V677.419z M612.903,612.903h32.258v32.258h-32.258V612.903z"/>
<path fill="#2D2D2D" d="M580.646,548.387h354.839v-161.29H580.646V548.387z M612.903,419.354h290.321v96.774H612.903V419.354z"/>
<rect x="548.387" y="225.807" fill="#FFFFFF" width="32.26" height="32.258"/>
<rect x="354.839" y="225.807" fill="#FFFFFF" width="32.258" height="32.258"/>
</svg>
