<svg xmlns="http://www.w3.org/2000/svg" width="56" height="45" viewBox="0 0 56 45"><g fill="none" fill-rule="evenodd"><path fill="#999" d="M42.695 8.633V33L55.4 23.51V3.75zM26.644.75L10.558 2.785 42.482 7.5l11.423-4.118z"/><path fill="#A3509F" d="M38.958 18l2.99-1.583V9z"/><path fill="#999" d="M.842 27.118L35.461 41.25l5.739-4.78L7.408 24.75zM35.968 42v2.25L55.4 27.1v-1.6zM.095 29.348L34.474 44.25V42L.094 27.75z"/><path fill="#A3509F" d="M37.308 8.14l-3.762 9.13 3.242.73 3.665-9.38-3.145-.48zm-5.594-.854l-4.007 8.666 2.921.658 3.945-8.887-2.86-.437zM8.572 3.75l-5.488 6.648 2.133.48 5.3-6.831-1.945-.297zm17.721 2.707l-4.257 8.215 2.796.63 4.258-8.418-2.797-.427zM16.625 4.98l-4.823 7.382 2.645.6 4.695-7.597-2.517-.385zm4.68.716l-4.528 7.79 2.587.584 4.477-7.988-2.535-.386zm-9.09-1.39l-5.14 6.991 2.685.606 4.734-7.249-2.279-.348z"/><path fill="#999" d="M38.155 31.504l-5.703-1.677v-10.85l-.945-.215V29.55l-4.897-1.44V17.65l-4.38-.994v7.6l-11.834-3.265v-7.02l-2.08-.472v10.488L41.2 34.5V18.828l-3.045 1.422z"/></g></svg>