<svg xmlns="http://www.w3.org/2000/svg" xmlns:xlink="http://www.w3.org/1999/xlink" width="728" height="221"><defs><path id="a" d="M434.503 57.611V85.3c0 5.145-1.477 9.207-4.391 12.07-2.921 2.872-6.798 4.327-11.524 4.327-6.036 0-10.573-1.797-13.485-5.34-2.982-3.627-4.493-9.289-4.493-16.829 0-16.428 6.645-24.414 20.314-24.414 2.823 0 5.552.261 8.109.774 2.144.433 3.982 1.012 5.47 1.724m5.219-17.1a56.342 56.342 0 0 0-17.973-2.96c-13.261 0-23.569 3.79-30.64 11.264-7.047 7.451-10.622 18.216-10.622 31.994 0 12.165 3.006 21.76 8.937 28.51 5.976 6.808 14.401 10.26 25.041 10.26 5.035 0 9.415-.826 13.017-2.45 2.51-1.13 4.827-2.703 6.909-4.685-.373 5.813-1.658 10.078-3.823 12.69-2.552 3.07-6.721 4.625-12.392 4.625-5.346 0-10.693-.944-14.981-2.434-1.795-.623-3.676.64-3.731 2.538l-.339 11.724a2.775 2.775 0 0 0 2.086 2.78c3.635.927 11.3 2.633 18.479 2.633 11.959 0 20.895-3.916 26.558-11.639 5.563-7.593 8.384-18.123 8.384-31.298v-56.93s-9.05-4.652-14.91-6.622m224.04 31.2c.234-5.384 1.836-9.773 4.769-13.056 3.142-3.52 7.76-5.304 13.728-5.304 5.86 0 10.285 1.72 13.155 5.114 2.702 3.2 4.175 7.654 4.382 13.247h-36.034zm54.813 7.658c0-13.43-3.095-23.88-9.201-31.057-6.163-7.246-15.333-10.918-27.253-10.918-12.002 0-21.421 3.775-27.994 11.218-6.525 7.396-9.833 18.284-9.833 32.36 0 9.084 1.796 16.793 5.342 22.913 3.563 6.154 8.41 10.766 14.41 13.708 5.943 2.913 12.67 4.39 19.999 4.39 5.787 0 10.985-.665 15.449-1.98 4.48-1.318 8.72-3.39 12.627-6.171 1.18-.915 1.78-1.99 1.78-3.193 0-.721-.18-1.51-.548-2.37l-3.253-6.79c-.777-2.04-2.103-2.346-2.823-2.346-.661 0-1.39.278-2.292.878-5.508 3.673-11.814 5.536-18.74 5.536-7.125 0-12.727-1.795-16.656-5.331-3.605-3.246-5.564-7.897-5.827-13.831h49.012c2.167 0 5.8-.912 5.8-7.016zm-99.754-7.657h-36.036c.234-5.384 1.837-9.774 4.768-13.057 3.143-3.52 7.762-5.304 13.73-5.304 5.861 0 10.287 1.72 13.155 5.114 2.703 3.203 4.176 7.656 4.383 13.247m-17.675-34.318c-12.002 0-21.42 3.775-27.994 11.218-6.525 7.397-9.835 18.284-9.835 32.36 0 9.082 1.8 16.792 5.345 22.913 3.561 6.152 8.41 10.765 14.41 13.708 5.94 2.913 12.668 4.39 19.998 4.39 5.787 0 10.984-.665 15.45-1.98 4.483-1.322 8.723-3.394 12.624-6.171 1.181-.915 1.781-1.99 1.781-3.193 0-.727-.18-1.515-.549-2.37l-3.253-6.787c-.776-2.043-2.102-2.35-2.823-2.35-.662 0-1.388.279-2.29.879-5.51 3.673-11.816 5.536-18.74 5.536-7.125 0-12.726-1.795-16.656-5.331-3.607-3.248-5.565-7.9-5.829-13.831H631.8c2.165 0 5.8-.912 5.8-7.016 0-13.43-3.095-23.88-9.199-31.057-6.164-7.246-15.334-10.918-27.254-10.918m-358.01 32.032v31.971c-3.265 2.115-7.69 3.186-13.166 3.186-6.976 0-12.22-1.895-15.59-5.63-3.408-3.773-5.136-10.148-5.136-18.944 0-7.897 1.58-14.154 4.694-18.598 3.006-4.285 7.66-6.459 13.833-6.459 4.577 0 8.34 1.236 11.181 3.67 2.776 2.384 4.184 6.018 4.184 10.804M261.442.43c-3.572 0-18.305 16.247-18.305 18.87v23.716c-4.589-3.733-11.135-5.623-19.489-5.623-7.037 0-13.247 1.809-18.456 5.377-5.192 3.556-9.22 8.588-11.972 14.953-2.722 6.295-4.102 13.63-4.102 21.806 0 28.17 13.606 42.454 40.44 42.454 6.442 0 12.743-1.022 18.73-3.037 6.01-2.029 14.976-6.74 14.976-6.74V2.355c0-.512-.146-.948-.432-1.292a1.771 1.771 0 0 0-1.39-.631M85.558 71.712H49.522c.233-5.385 1.835-9.774 4.767-13.058 3.142-3.518 7.761-5.303 13.73-5.303 5.86 0 10.286 1.72 13.153 5.115 2.703 3.199 4.177 7.653 4.386 13.246M67.88 37.394c-12 0-21.419 3.775-27.992 11.218-6.527 7.394-9.836 18.283-9.836 32.36 0 9.084 1.798 16.792 5.342 22.913 3.563 6.152 8.411 10.763 14.412 13.708 5.942 2.913 12.671 4.39 20 4.39 5.787 0 10.983-.665 15.447-1.98 4.48-1.32 8.722-3.39 12.63-6.171 1.18-.917 1.78-1.992 1.78-3.193 0-.721-.182-1.51-.55-2.37l-3.254-6.79c-.78-2.04-2.104-2.346-2.824-2.346-.662 0-1.389.278-2.29.878-5.509 3.673-11.814 5.536-18.74 5.536-7.125 0-12.729-1.795-16.656-5.331-3.605-3.246-5.565-7.897-5.827-13.831h49.011c2.167 0 5.801-.912 5.801-7.016 0-13.428-3.095-23.878-9.199-31.057-6.163-7.246-15.333-10.918-27.255-10.918m435.89 4.323c.79 1.065 1.17 2.729 1.17 5.089v4.33c0 2.382-.39 4.03-1.194 5.044-.892 1.11-2.442 1.65-4.744 1.65h-13.994v33.877c0 4.616.489 8.069 1.96 9.884.795.979 1.614 1.588 2.33 1.967a4.029 4.029 0 0 1 2.164 3.565v10.83a4.03 4.03 0 0 1-4.542 3.999c-7.658-.961-22.313-5.898-22.313-29.603V19.605c0-2.153.43-3.768 1.315-4.937.965-1.273 2.522-1.92 4.625-1.92h8.522c2.102 0 3.659.646 4.624 1.918.886 1.17 1.315 2.787 1.315 4.939V39.95h13.994c2.323 0 3.88.579 4.769 1.767zm62.438 3.656l-.09.227-5.29 9.613c-.549 2.074-1.982 2.406-2.783 2.406l-.296-.035-1.337-.398c-1.79-.941-3.744-1.46-5.938-1.591a23.2 23.2 0 0 0-2.028-.095c-5.032 0-13.615 1.817-15.33 2.657v54.204c0 2.245-.497 3.998-1.48 5.213-1.055 1.303-2.786 1.964-5.146 1.964h-7.148c-2.106 0-3.735-.583-4.845-1.734a1.503 1.503 0 0 1-.198-.194c-1.05-1.221-1.582-2.987-1.582-5.25V46.079c0-1.924.31-3.293.948-4.185.745-1.042 2.062-1.55 4.027-1.55h9.145c1.341 0 2.412.607 3.028 1.686 12.465-3.712 18.861-3.927 20.552-3.896 2.27 0 11.39.46 14.325 2.694.801.62 1.312 1.323 1.531 2.097.21.726.188 1.55-.065 2.449zm-219.704-7.824c7.779 0 14.152 2.489 18.942 7.398 4.781 4.903 7.204 12.273 7.204 21.909v45.702c0 2.242-.498 3.996-1.48 5.212-1.058 1.303-2.743 1.966-5.01 1.966h-7.284c-2.253 0-3.953-.651-5.052-1.936-1.047-1.217-1.576-2.98-1.576-5.242v-44.42c0-4.842-.911-8.27-2.71-10.183-1.78-1.888-4.788-2.845-8.944-2.845-5.024 0-14.777 1.799-16.74 2.697v54.75c0 2.248-.5 4-1.48 5.215-1.058 1.3-2.79 1.964-5.148 1.964h-7.147c-2.252 0-3.952-.651-5.053-1.936-1.043-1.22-1.574-2.982-1.574-5.242v-66.87c0-1.925.312-3.293.95-4.185.744-1.041 2.06-1.548 4.028-1.548h9.144c1.368 0 2.455.627 3.063 1.745 1.327-.332 2.562-.651 3.736-.956 7.442-1.924 12.358-3.195 22.13-3.195zm-59.58 2.406c2.252 0 3.952.65 5.052 1.933 1.044 1.217 1.573 3.036 1.573 5.404v65.266c0 2.243-.497 3.998-1.48 5.21-1.055 1.305-2.787 1.967-5.145 1.967h-7.148c-2.253 0-3.953-.65-5.052-1.935-1.045-1.22-1.576-2.983-1.576-5.242V47.292c0-2.366.53-4.185 1.577-5.404 1.098-1.283 2.798-1.933 5.05-1.933h7.149zm-131.72-2.406c7.782 0 14.154 2.489 18.943 7.398 4.78 4.9 7.204 12.272 7.204 21.909v45.702c0 2.243-.5 3.998-1.481 5.212-1.055 1.303-2.74 1.966-5.01 1.966h-7.283c-2.254 0-3.955-.651-5.053-1.936-1.045-1.217-1.574-2.98-1.574-5.242v-44.42c0-4.843-.912-8.271-2.712-10.183-1.778-1.888-4.787-2.845-8.943-2.845-5.023 0-14.777 1.799-16.74 2.697v54.75c0 2.246-.498 3.999-1.481 5.215-1.056 1.3-2.787 1.964-5.146 1.964h-7.147c-2.255 0-3.955-.651-5.053-1.936-1.044-1.22-1.575-2.982-1.575-5.242v-66.87c0-1.924.31-3.293.95-4.185.743-1.041 2.06-1.548 4.028-1.548h9.144c1.753 0 2.637.978 3.059 1.746 1.163-.291 2.254-.573 3.296-.841l.446-.116c7.442-1.924 12.357-3.195 22.129-3.195zM22.363 101.59c.794.979 1.612 1.588 2.33 1.967a4.029 4.029 0 0 1 2.163 3.565v10.83a4.03 4.03 0 0 1-4.542 3.999C14.654 120.99 0 116.054 0 92.349v-76.85c0-2.152.43-3.767 1.315-4.936.964-1.274 2.521-1.92 4.625-1.92h8.521c2.104 0 3.66.645 4.625 1.918.885 1.17 1.315 2.787 1.315 4.938v76.208c0 4.615.488 8.069 1.961 9.884zm700.253-57.154c-.157.052-.564.076-1.219.076h-.46v-1.525h.46c.646 0 1.051.026 1.216.08a.687.687 0 0 1 .516.677.714.714 0 0 1-.513.692zm1.392 2.124a12.577 12.577 0 0 0-.413-.68 2.835 2.835 0 0 0-.377-.43 1.399 1.399 0 0 0-.392-.209c.477-.069.846-.246 1.11-.533.263-.287.395-.63.395-1.034 0-.294-.069-.56-.21-.8a1.406 1.406 0 0 0-.522-.537c-.209-.116-.5-.19-.876-.223a57 57 0 0 0-1.787-.013h-1.134v5.586h1.134v-2.295h.295c.317 0 .578.078.784.237.206.158.467.541.784 1.151l.466.907h1.403l-.66-1.127zm1.88.547a4.142 4.142 0 0 1-1.604 1.608 4.336 4.336 0 0 1-2.162.58 4.343 4.343 0 0 1-2.158-.58 4.1 4.1 0 0 1-1.604-1.608 4.379 4.379 0 0 1-.575-2.165c0-.76.197-1.49.589-2.186a4.047 4.047 0 0 1 1.612-1.6 4.395 4.395 0 0 1 2.136-.558c.743 0 1.456.186 2.14.558a4.033 4.033 0 0 1 1.615 1.6c.393.696.589 1.425.589 2.186a4.36 4.36 0 0 1-.577 2.165m.898-4.88a5.032 5.032 0 0 0-2.006-1.992 5.504 5.504 0 0 0-2.666-.694c-.926 0-1.815.231-2.665.694a5.034 5.034 0 0 0-2.007 1.992 5.46 5.46 0 0 0-.73 2.715c0 .94.238 1.837.716 2.69a5.092 5.092 0 0 0 1.995 1.996 5.43 5.43 0 0 0 2.69.716c.942 0 1.838-.238 2.692-.716a5.088 5.088 0 0 0 1.996-1.996c.477-.853.715-1.75.715-2.69a5.46 5.46 0 0 0-.73-2.715"/><path id="c" d="M-11-32.396h763v193H-11z"/><path id="d" d="M35.63 11.396C-.474 20.395.178 50.525.178 62.434v14.223c-.01.012-.03 25.404-.03 26.022 0 .491.464.627.762.233C25.9 69.676 51.93 48.175 51.93 48.175c-2.446.467-16.46 3.096-31.136 13.763-.012-2.893.014-5.607 0-5.942-.14-20.514 11.935-26.054 26.349-30.059 11.749-3.265 33.647-5.133 33.647-5.133s-1.795 12.786-4.114 38.82c-1.694 19.021-15.669 24.048-35.147 24.048-2.238 0-5.514.003-11.003.006-8.835 12.621-9.934 19.435-9.934 19.435s17.78-.011 21.519-.011c40.929 0 50.069-18.035 52.018-44.73 2.476-33.915 5.889-53.587 6.895-57.288a.38.38 0 0 0-.363-.481c-5.247.799-39.683 4.475-65.031 10.793z"/><linearGradient id="e" x1="62.978%" x2="0%" y1="37.904%" y2="100%"><stop offset="0%" stop-color="#08C177"/><stop offset="100%" stop-color="#078181"/></linearGradient></defs><g fill="none" fill-rule="evenodd"><g transform="translate(0 73.396)"><mask id="b" fill="#fff"><use xlink:href="#a"/></mask><use fill="#12304B" xlink:href="#a"/><g mask="url(#b)"><use fill="#D8D8D8" xlink:href="#c"/><path stroke="#979797" d="M-10.5-31.896h762v192h-762z"/></g><g mask="url(#b)"><path fill="#101F30" d="M0-25.396h728v172H0z"/></g></g><g transform="translate(273 .396)"><mask id="f" fill="#fff"><use xlink:href="#d"/></mask><use fill="#1BCC84" xlink:href="#d"/><g fill="url(#e)" mask="url(#f)"><path d="M-14-3h118v120H-14z"/></g></g></g></svg>