<?xml version="1.0" encoding="utf-8"?>
<!-- Generator: Adobe Illustrator 19.1.0, SVG Export Plug-In . SVG Version: 6.00 Build 0)  -->
<svg version="1.1" id="Layer_1" xmlns="http://www.w3.org/2000/svg" xmlns:xlink="http://www.w3.org/1999/xlink" width="83" height="42" viewBox="0 0 90 90" style="enable-background:new 0 0 90 90;" xml:space="preserve">
<style type="text/css">
	.st0{clip-path:url(#SVGID_2_);fill-rule:evenodd;clip-rule:evenodd;fill:#2BA8E0;}
	.st1{clip-path:url(#SVGID_2_);fill:#43484F;}
</style>
<g>
	<defs>
		<rect id="SVGID_1_" width="90" height="90"/>
	</defs>
	<clipPath id="SVGID_2_">
		<use xlink:href="#SVGID_1_"  style="overflow:visible;"/>
	</clipPath>
	<path class="st0" d="M18.2,0c9.4,0,17.1,7.1,18.1,16.1c-0.3,0.2-0.6,0.4-0.9,0.6c-4.4,2.9-7.7,7-9.8,11.8L22.4,36
		c-1.4,0.3-2.8,0.5-4.2,0.5C8.2,36.5,0,28.3,0,18.2C0,8.2,8.2,0,18.2,0 M17.2,31.9h1.6c0.5,0,0.7-0.4,0.7-0.8v-1.9
		c0-0.4,0.3-0.7,0.7-0.8c3.4-0.8,5.3-3.2,5.3-6c0-3.1-1.6-4.9-5.6-6.3c-2.9-1-4-1.8-4-2.8c0-0.9,0.7-1.9,2.9-1.9
		c1.7,0,3,0.4,3.9,0.8c0.2,0.1,0.5,0.1,0.7,0c0.2-0.1,0.4-0.3,0.4-0.5l0.6-2.1c0.1-0.4-0.1-0.8-0.5-1c-0.9-0.4-2-0.7-3.4-0.8
		c-0.4,0-0.7-0.4-0.7-0.8V5.4c0-0.5-0.5-0.8-1-0.8h-1.6c-0.5,0-0.9,0.4-0.9,0.8v1.7c0,0.4-0.2,0.7-0.6,0.8c-3.2,0.8-5,3-5,5.8
		c0,3.3,2.4,4.9,6,6.1c2.5,0.8,3.6,1.6,3.6,2.9c0,1.3-1.3,2.1-3.3,2.1c-1.7,0-3.4-0.5-4.7-1c-0.2-0.1-0.5-0.1-0.7,0
		c-0.2,0.1-0.4,0.3-0.4,0.6l-0.6,2.3c-0.1,0.4,0.1,0.8,0.5,1c1.1,0.5,2.7,0.9,4.4,1.1c0.4,0,0.8,0.4,0.8,0.8v1.6
		C16.5,31.6,16.8,31.9,17.2,31.9"/>
	<polygon class="st1" points="68.6,78.8 68.6,78.8 68.6,78.8 68.6,78.8 68.6,78.8 68.6,78.8 	"/>
	<polygon class="st1" points="68.6,78.7 68.6,78.8 68.6,78.8 68.6,78.8 68.6,78.8 68.6,78.7 	"/>
	<polygon class="st1" points="68.6,78.7 68.6,78.7 68.6,78.7 68.6,78.7 68.6,78.7 68.6,78.7 	"/>
	<path class="st0" d="M90,73.7c0,2.5-2.1,4.2-4.3,4.5c-1.9,0.3-3.9,0.6-5.8,0.8c-0.2,6.1-5.2,11-11.2,11c-5.3,0-10-3.8-11-9
		c-8.3,0.4-16.7,0.4-25,0c-1,5.2-5.7,9-11,9c-6.1,0-11.1-4.9-11.2-11c-2.2-0.3-4.4-0.6-6.6-0.9c-2-0.3-3.6-2-3.6-4l0-16.7
		c0-3.5,0.8-6,3.1-7.9c1.9-1.6,4.6-2.4,8.6-2.6l12.4-0.7l6.7-15.5c3.4-7.9,10.8-12.8,19.4-12.8h17c7.9,0,10,4.7,13.4,12.5
		c3,6.8,5.3,13.9,6.9,21.2c0,0.1,0.1,0.3,0.1,0.4h-5.3c-1.6,0-2.8,1.3-2.8,2.8c0,1.6,1.3,2.8,2.8,2.8h6.4
		C89.5,62.9,89.9,68.3,90,73.7 M74.2,78.8c0-3.1-2.5-5.6-5.6-5.6c-3.1,0-5.6,2.5-5.6,5.6c0,3.1,2.5,5.6,5.6,5.6
		C71.7,84.4,74.2,81.9,74.2,78.8 M27.1,78.8c0-3.1-2.5-5.6-5.6-5.6c-3.1,0-5.6,2.5-5.6,5.6c0,3.1,2.5,5.6,5.6,5.6
		C24.6,84.4,27.1,81.9,27.1,78.8 M9.9,63.6c0,1.6-1.3,2.8-2.8,2.8c-1.6,0-2.8-1.3-2.8-2.8v-2.1c0-1.6,1.3-2.8,2.8-2.8
		c1.6,0,2.8,1.3,2.8,2.8V63.6z M65,44.1c-1-6-2.5-12-4.7-17.7H50.2c-5.2,0-9.6,2.9-11.6,7.7l-5,11.7L65,44.1z M69.2,43.8
		c3.5-0.6,5.7-4.1,4.4-7.5c-0.9-2.5-2-5-3.1-7.4c-1-1.6-2-2.5-3.3-2.5h-2.4C66.8,32,68.3,37.9,69.2,43.8"/>
</g>
</svg>
