<?xml version="1.0" encoding="utf-8"?>
<!-- Generator: Adobe Illustrator 16.0.0, SVG Export Plug-In . SVG Version: 6.00 Build 0)  -->
<!DOCTYPE svg PUBLIC "-//W3C//DTD SVG 1.1//EN" "http://www.w3.org/Graphics/SVG/1.1/DTD/svg11.dtd">
<svg version="1.1" id="Capa_1" xmlns="http://www.w3.org/2000/svg" xmlns:xlink="http://www.w3.org/1999/xlink" x="0px" y="0px"
	 width="512px" height="512px" viewBox="0 0 512 512" enable-background="new 0 0 512 512" xml:space="preserve">
<g>
	<g>
		<path fill="#ff5000" d="M99.146,242.108v108.11c0,21.692,70.26,54.908,156.857,54.908c86.605,0,156.857-33.208,156.857-54.908
			v-108.11l-156.857,56.036L99.146,242.108z"/>
		<path fill="#ff5000" d="M86.684,382.354v-167.37H68.396v167.37c-5.401,3.179-9.144,8.784-9.144,15.501
			c0,10.106,8.165,18.279,18.287,18.279c10.106,0,18.279-8.173,18.279-18.279C95.819,391.138,92.054,385.54,86.684,382.354z"/>
		<path fill="#ff5000" d="M238.171,181.031c2.63-7.421,9.511-12.815,17.81-12.815c10.553,0,19.07,8.533,19.07,19.078
			c0,10.521-8.518,19.07-19.07,19.07c-6.02,0-11.147-2.967-14.67-7.328L95.632,221.473l160.364,57.241l255.996-91.428
			L256.004,95.858L0,187.286l59.449,21.223L238.171,181.031z"/>
	</g>
</g>
</svg>
