<?xml version="1.0" encoding="utf-8"?>
<!-- Generator: Adobe Illustrator 16.0.0, SVG Export Plug-In . SVG Version: 6.00 Build 0)  -->
<!DOCTYPE svg PUBLIC "-//W3C//DTD SVG 1.1//EN" "http://www.w3.org/Graphics/SVG/1.1/DTD/svg11.dtd">
<svg version="1.1" id="Capa_1" xmlns="http://www.w3.org/2000/svg" xmlns:xlink="http://www.w3.org/1999/xlink" x="0px" y="0px"
	 width="512px" height="512px" viewBox="0 0 512 512" enable-background="new 0 0 512 512" xml:space="preserve">
<g>
	<g>
		<path fill="#003671" d="M290.909,477.091h-23.273c-6.423,0-11.636,5.213-11.636,11.636c0,6.424,5.213,11.637,11.636,11.637h23.273
			c6.423,0,11.636-5.213,11.636-11.637C302.545,482.304,297.332,477.091,290.909,477.091z"/>
	</g>
</g>
<g>
	<g>
		<path fill="#003671" d="M221.091,267.636H104.727c-6.423,0-11.636,5.214-11.636,11.636V477.09H69.818V209.455
			c0-6.423-5.213-11.636-11.636-11.636c-6.423,0-11.636,5.213-11.636,11.636v279.273c0,6.423,5.213,11.636,11.636,11.636h162.909
			c6.423,0,11.636-5.213,11.636-11.636V279.273C232.727,272.85,227.514,267.636,221.091,267.636z M209.455,477.091h-93.091V290.909
			h93.091V477.091z"/>
	</g>
</g>
<g>
	<g>
		<circle fill="#003671" cx="186.182" cy="384" r="11.636"/>
	</g>
</g>
<g>
	<g>
		<path fill="#003671" d="M256,93.091c-32.081,0-58.182,26.1-58.182,58.182c0,32.081,26.1,58.182,58.182,58.182
			c32.081,0,58.182-26.1,58.182-58.182S288.081,93.091,256,93.091z M255.988,186.182c-15.151,0-27.939-9.763-32.756-23.273h65.524
			C283.939,176.419,271.139,186.182,255.988,186.182z M223.244,139.636c4.806-13.51,17.606-23.273,32.756-23.273
			c15.15,0,27.951,9.763,32.768,23.273H223.244z"/>
	</g>
</g>
<g>
	<g>
		<path fill="#003671" d="M485.527,151.028l-32.141-20.887c0.141-0.721,0.432-1.385,0.432-2.141V34.909
			c6.423,0,11.636-5.213,11.636-11.636s-5.213-11.636-11.636-11.636h-11.637h-46.545H384c-6.423,0-11.636,5.213-11.636,11.636
			S377.577,34.909,384,34.909v34.909c0,6.423,5.213,11.636,11.636,11.636s11.636-5.213,11.636-11.636V34.909h23.273v80.372
			l-146.816-95.43c-16.559-10.752-38.889-10.752-55.458,0L26.473,151.028C9.903,161.804,0,180.038,0,199.808v9.647
			c0,6.423,5.213,11.636,11.636,11.636c6.423,0,11.636-5.213,11.636-11.636v-9.647c0-11.869,5.935-22.807,15.884-29.277
			L240.943,39.377c8.995-5.841,21.12-5.83,30.103,0l201.798,131.165c9.392,6.097,15.197,16.198,15.825,27.287h-34.851
			c-6.424,0-11.637,5.213-11.637,11.636v23.273c0,6.423,5.213,11.636,11.637,11.636c6.423,0,11.636-5.213,11.636-11.636v-11.636
			h34.909c6.423,0,11.636-5.213,11.636-11.636v-9.647C512,180.038,502.097,161.804,485.527,151.028z"/>
	</g>
</g>
<g>
	<g>
		<path fill="#003671" d="M384,244.364c-70.575,0-128,57.425-128,128s57.425,128,128,128s128-57.425,128-128
			S454.575,244.364,384,244.364z M384,477.091c-57.74,0-104.727-46.988-104.727-104.727c0-57.739,46.986-104.729,104.727-104.729
			s104.727,46.988,104.727,104.728C488.727,430.102,441.74,477.091,384,477.091z"/>
	</g>
</g>
<g>
	<g>
		<path fill="#003671" d="M395.636,360.727h-23.272c-6.412,0-11.637-5.213-11.637-11.636s5.226-11.636,11.637-11.636h34.908
			c6.424,0,11.637-5.201,11.637-11.637c0-6.435-5.213-11.635-11.637-11.635h-11.636v-11.637c0-6.423-5.213-11.636-11.636-11.636
			s-11.636,5.213-11.636,11.636v11.637c-19.247,0-34.909,15.662-34.909,34.908c0,19.247,15.663,34.909,34.909,34.909h23.272
			c6.412,0,11.637,5.213,11.637,11.636s-5.226,11.637-11.637,11.637h-34.908c-6.424,0-11.637,5.2-11.637,11.636
			c0,6.435,5.213,11.636,11.637,11.636h11.636v11.636c0,6.423,5.213,11.637,11.636,11.637s11.636-5.214,11.636-11.637v-11.636
			c19.247,0,34.909-15.663,34.909-34.909C430.545,376.391,414.883,360.727,395.636,360.727z"/>
	</g>
</g>
</svg>
