<svg id="Layer_1" data-name="Layer 1" xmlns="http://www.w3.org/2000/svg" viewBox="0 0 63.42 63.42"><defs><style>.cls-1{fill:#f9a61a}.cls-2{fill:#ef5023}.cls-3{fill:#29aae1}.cls-4{fill:#7bc043}.cls-5{fill:#a2509e}.cls-6{fill:#619e43}</style></defs><title>icon-color-ring</title><path class="cls-1" d="M292.69 372.72l-2.38-4.12a31.67 31.67 0 0 0-15.86 27.4h4.76a26.92 26.92 0 0 1 13.48-23.28z" transform="translate(-274.45 -364.33)"/><path class="cls-2" d="M279.21 396h-4.76a31.67 31.67 0 0 0 15.87 27.44l2.38-4.12A26.92 26.92 0 0 1 279.21 396z" transform="translate(-274.45 -364.33)"/><path class="cls-3" d="M306.16 369.09a26.79 26.79 0 0 1 13.47 3.63l2.37-4.12a31.53 31.53 0 0 0-31.68 0l2.38 4.12a26.79 26.79 0 0 1 13.46-3.63z" transform="translate(-274.45 -364.33)"/><path class="cls-4" d="M322 368.6l-2.38 4.12A26.92 26.92 0 0 1 333.11 396h4.76A31.67 31.67 0 0 0 322 368.6z" transform="translate(-274.45 -364.33)"/><path class="cls-5" d="M306.16 423a26.79 26.79 0 0 1-13.47-3.63l-2.38 4.12a31.53 31.53 0 0 0 31.68 0l-2.38-4.12a26.79 26.79 0 0 1-13.45 3.63z" transform="translate(-274.45 -364.33)"/><path class="cls-6" d="M319.62 419.36l2.38 4.12A31.67 31.67 0 0 0 337.87 396h-4.76a26.92 26.92 0 0 1-13.49 23.36z" transform="translate(-274.45 -364.33)"/></svg>