<svg aria-label="Southwest Financial Logo" version="1.1" fill="#FFFFFF" xmlns="http://www.w3.org/2000/svg" xmlns:xlink="http://www.w3.org/1999/xlink" x="0px" y="0px" width="272px" height="110px" viewBox="0 0 272 110" enable-background="new 0 0 272 110" xml:space="preserve">
<path fill="#FFFFFF" d="M0.564,103.565c0.87,0.645,2.645,1.936,5.387,1.936c2,0,3-1.129,3-2.517c0-3.709-8.516-4.29-8.516-10.322 c0-3.645,3.129-5.936,7.773-5.936c2.483,0,5.419,0.646,5.419,1.484c0,0.322-0.097,0.516-0.193,1.032l-0.71,2.678 c-0.936-0.484-2.548-1.323-4.483-1.323c-1.419,0-2.483,0.774-2.483,1.903c0,3.387,8.548,3.903,8.548,10.322 c0,3.871-2.936,6.678-7.807,6.678c-3.29-0.032-4.838-0.742-5.967-1.388c-0.323-0.193-0.355-0.645-0.323-1.032L0.564,103.565z M15.979,101.469c0-5.193,2.678-8.032,7.871-8.032c5.129,0,7.838,2.839,7.838,8.032c0,5.161-2.677,8.032-7.838,8.032 C18.657,109.501,15.979,106.565,15.979,101.469z M23.85,97.211c-2.193,0-3.097,1.58-3.097,4.258c0,2.516,0.871,4.258,3.097,4.258 c2.193,0,3.064-1.678,3.064-4.258C26.915,98.791,26.011,97.211,23.85,97.211z M32.813,94.533l5.355-1.097v8.58 c0,2.517,0,3.517,2.032,3.517c1.387,0,2.483-0.871,2.773-1.259v-6.226c0-2.58-0.129-3.322-0.548-4.354h5.709 c-0.451,1.42-0.548,1.774-0.548,4.354v6.774c0,2.064,0.258,2.774,0.677,3.58l-4.87,0.839l-0.227-1 c-0.419,0.323-2.097,1.259-4.483,1.259c-5.129,0-5.129-2.484-5.129-5.517V99.63C33.555,96.598,33.297,95.92,32.813,94.533z M50.098,97.501v-3.807h1.548v-3.806l4.613-0.839v4.645h2.58c0.452,0,1.161,0,1.581-0.097v1.097c0,2.388-0.129,2.807-2.226,2.807 h-1.936v5.774c0,1.838,0.032,2.548,1.129,2.548c1.354,0,2.645-1.322,3.097-1.839v2.42c0,1.483-0.129,3.097-4.646,3.097 c-4.193,0-4.193-1.807-4.193-4.968v-7.032H50.098z M62.611,109.21c0.581-1.032,0.678-1.839,0.678-4.387V90.921 c0-2.71-0.129-3.194-0.678-4.323l5.323-1.064v9.161c0.838-0.483,2.258-1.258,4.387-1.258c5.064,0,5.097,2.548,5.097,6.58v4.807 c0,2.613,0.097,3.097,0.71,4.387h-6.064c0.548-1.064,0.709-1.709,0.709-4.387v-4.419c0-1.871,0-3-1.968-3 c-1.483,0-2.419,0.742-2.87,1.258v6.161c0,2.613,0.129,3.064,0.709,4.387H62.611z M77.058,93.694H83.8 c-0.064,0.258-0.129,0.549-0.129,0.839c0,0.807,0.354,1.226,0.838,2.29l2.646,5.678l2.161-4.581l-0.451-0.903 c-0.774-1.58-1.13-2.193-2.032-3.322h5.902c-0.032,0.291-0.097,0.581-0.097,0.903c0,0.581,0.549,1.742,0.871,2.419l2.613,5.291 l2.193-5.097c0.258-0.581,0.807-1.903,0.807-2.549c0-0.322-0.13-0.71-0.259-0.968h6.452c-0.71,0.646-2.291,3.032-4,6.29 l-4.968,9.517h-1l-4.129-8.032l-3.903,8.032h-0.968l-4.839-9.322C79.671,96.63,78.542,95.275,77.058,93.694z M109.245,103.598 c0.226,0.71,0.871,2.226,3.161,2.226c1.871,0,3.581-1.226,4.258-1.742l1.71,3.226c-0.581,0.581-2.548,2.194-6.322,2.194 c-4.968,0-7.936-3.227-7.936-8.258c0-4.71,2.774-7.807,7.387-7.807c5.355,0,6.646,4.419,6.646,7.129L109.245,103.598z M108.665,99.598c0,0.29,0,0.548,0.032,0.839l4.902-1.581c-0.226-0.741-0.709-2.193-2.419-2.193 C109.438,96.662,108.665,98.211,108.665,99.598z M121.208,104.34c0.87,0.548,2.87,1.806,4.838,1.806c1,0,1.839-0.322,1.839-1.322 c0-2.258-7.29-1.354-7.29-6.709c0-3.291,2.646-4.678,6.193-4.678c2.646,0,5.032,0.678,5.032,1.871c0,0.322-0.161,0.645-0.29,1.032 l-0.742,1.774c-1.032-0.646-2.549-1.452-4.549-1.452c-0.838,0-1.451,0.387-1.451,1.064c0,2.29,7.322,1.032,7.322,6.646 c0,3.451-2.677,5.129-6.387,5.129c-2.968,0-5.483-1.064-5.483-2.097c0-0.227,0.097-0.517,0.226-0.936L121.208,104.34z M133.43,97.501v-3.807h1.548v-3.806l4.614-0.839v4.645h2.58c0.451,0,1.16,0,1.58-0.097v1.097c0,2.388-0.129,2.807-2.225,2.807 h-1.936v5.774c0,1.838,0.031,2.548,1.129,2.548c1.354,0,2.645-1.322,3.096-1.839v2.42c0,1.483-0.129,3.097-4.645,3.097 c-4.194,0-4.194-1.807-4.194-4.968v-7.032H133.43z M157.584,86.889c0.58,0.064,1.516,0.129,3,0.129h8.031 c1.355,0,1.582,0.548,1.582,1.322l0.096,3.129c-0.773-0.387-1.096-0.451-2.773-0.451h-3.773v4.548h2.805 c1.066,0,1.549-0.032,2.291-0.226v4.258c-0.645-0.129-1.258-0.193-2.291-0.193h-2.805v5.129c0,3,0.354,3.709,0.871,4.677h-6.936 c0.516-0.839,0.902-1.741,0.902-4.677V91.694C158.584,88.662,158.262,88.018,157.584,86.889z M172.031,109.21 c0.582-1.161,0.711-1.839,0.711-4.387v-5.71c0-2.612-0.129-3.193-0.711-4.354l5.324-1.064v11.129c0,2.516,0.129,3.161,0.709,4.387 H172.031z M172.355,89.114c0-1.322,1.096-2.388,2.418-2.388c1.355,0,2.451,1.065,2.451,2.388c0,1.354-1.096,2.419-2.451,2.419 C173.451,91.533,172.355,90.469,172.355,89.114z M179.74,109.21c0.58-1.097,0.676-1.903,0.676-4.387v-5.71 c0-2.58-0.096-3.226-0.676-4.354l4.773-1.064l0.16,1.193c0.807-0.516,2.582-1.451,4.775-1.451c5.096,0,5.096,2.354,5.096,6.968 v4.419c0,2.387,0.098,3.322,0.711,4.387h-6.064c0.547-0.968,0.709-1.968,0.709-4.387v-4.419c0-1.968,0-3-1.969-3 c-1.482,0-2.418,0.807-2.869,1.258v6.161c0,2.419,0.129,3.29,0.709,4.387H179.74z M197.701,98.759l-0.482-2.032 c-0.064-0.322-0.129-0.807-0.129-0.968c0-1.097,3.451-2.322,6.611-2.322c3.484,0,5.322,1.032,5.322,4.129l0.064,6.807 c0,1.967,0.518,2.773,1.291,3.516l-2.709,1.29c-0.387,0.161-0.742,0.323-1.162,0.323c-0.58,0-0.871-0.581-1.064-1.259 c-0.807,0.613-2,1.259-4,1.259c-2.902,0-4.773-1.774-4.773-4.646c0-4.742,5.42-5.322,7.838-5.516v-0.71 c0-0.968-0.16-1.774-1.773-1.774C200.637,96.855,198.541,98.146,197.701,98.759z M204.572,105.437l-0.064-3.064 c-0.936,0.064-3.516,0.419-3.516,2.354c0,1,0.645,1.612,1.613,1.612C203.25,106.339,204.186,105.727,204.572,105.437z M211.697,109.21c0.58-1.097,0.678-1.903,0.678-4.387v-5.71c0-2.58-0.098-3.226-0.678-4.354l4.773-1.064l0.162,1.193 c0.807-0.516,2.58-1.451,4.773-1.451c5.098,0,5.098,2.354,5.098,6.968v4.419c0,2.387,0.096,3.322,0.709,4.387h-6.064 c0.549-0.968,0.709-1.968,0.709-4.387v-4.419c0-1.968,0-3-1.967-3c-1.484,0-2.42,0.807-2.871,1.258v6.161 c0,2.419,0.129,3.29,0.709,4.387H211.697z M240.338,98.63c-0.42-0.451-1.969-1.451-3.549-1.451c-2.193,0-3.58,1.612-3.58,4.097 c0,2.612,1.225,4.516,3.58,4.516c1.773,0,3.742-1.483,4.289-1.968l0.098,2.581c0,0.483,0.031,1.129-0.033,1.322 c-0.322,0.742-2.451,1.742-5.225,1.774c-4.549,0-7.516-2.807-7.516-8.129c0-4.936,2.838-7.936,7.967-7.936 c3.129,0,5.227,1.258,5.227,1.968c0,0.483-0.227,0.871-0.389,1.29L240.338,98.63z M243.012,109.21 c0.58-1.161,0.709-1.839,0.709-4.387v-5.71c0-2.612-0.129-3.193-0.709-4.354l5.322-1.064v11.129c0,2.516,0.129,3.161,0.709,4.387 H243.012z M243.334,89.114c0-1.322,1.098-2.388,2.42-2.388c1.354,0,2.451,1.065,2.451,2.388c0,1.354-1.098,2.419-2.451,2.419 C244.432,91.533,243.334,90.469,243.334,89.114z M252.17,98.759l-0.484-2.032c-0.064-0.322-0.129-0.807-0.129-0.968 c0-1.097,3.451-2.322,6.613-2.322c3.482,0,5.322,1.032,5.322,4.129l0.064,6.807c0,1.967,0.516,2.773,1.291,3.516l-2.711,1.29 c-0.387,0.161-0.742,0.323-1.16,0.323c-0.582,0-0.871-0.581-1.064-1.259c-0.807,0.613-2,1.259-4,1.259 c-2.904,0-4.775-1.774-4.775-4.646c0-4.742,5.42-5.322,7.84-5.516v-0.71c0-0.968-0.162-1.774-1.775-1.774 C255.105,96.855,253.008,98.146,252.17,98.759z M259.041,105.437l-0.064-3.064c-0.936,0.064-3.518,0.419-3.518,2.354 c0,1,0.646,1.612,1.613,1.612C257.719,106.339,258.654,105.727,259.041,105.437z M266.102,109.21 c0.58-1.258,0.709-1.903,0.709-4.387V90.921c0-2.549-0.129-3.129-0.709-4.355l5.322-1.064v19.322c0,2.322,0.129,3.258,0.709,4.387 H266.102z M120.153,0.699l15.62,32.776l15.528-33.016c0,0-8.219,13.098-15.613,13.03C128.291,13.421,120.153,0.699,120.153,0.699 M139.191,6.928c-0.027-1.877-1.57-3.375-3.445-3.349c-1.874,0.026-3.372,1.571-3.344,3.447s1.569,3.375,3.443,3.347 C137.721,10.345,139.219,8.804,139.191,6.928 M95.801,41.059l35.999-4.728L105.199,11.36c0,0,9.917,11.865,7.567,18.877 C110.415,37.251,95.801,41.059,95.801,41.059 M107.606,24.878c-1.792-0.558-3.693,0.45-4.246,2.241 c-0.553,1.79,0.449,3.692,2.243,4.247c1.793,0.553,3.695-0.45,4.248-2.243C110.404,27.331,109.401,25.429,107.606,24.878 M170.082,58.353l-31.9-17.336l6.844,35.839c0,0-1.051-15.429,4.973-19.719C156.023,52.843,170.082,58.353,170.082,58.353 M151.021,64.506c1.125,1.502,3.252,1.807,4.754,0.685c1.5-1.125,1.807-3.257,0.682-4.754c-1.127-1.503-3.256-1.812-4.754-0.685 C150.199,60.876,149.896,63.003,151.021,64.506 M166.062,11.388l-26.344,24.985l36.197,4.565c0,0-14.998-3.77-17.217-10.824 C156.48,23.058,166.062,11.388,166.062,11.388 M166.021,31.418c1.777-0.604,2.723-2.533,2.119-4.308 c-0.605-1.777-2.535-2.724-4.311-2.119s-2.723,2.537-2.119,4.311C162.318,31.077,164.246,32.023,166.021,31.418 M126.66,76.691 l6.629-35.697l-31.972,17.58c0,0,14.351-5.765,20.292-1.36C127.552,61.614,126.66,76.691,126.66,76.691 M114.916,60.463 c-1.08,1.532-0.712,3.651,0.821,4.732c1.535,1.082,3.653,0.715,4.731-0.822c1.083-1.534,0.714-3.653-0.819-4.73 C118.116,58.559,116,58.927,114.916,60.463"/>
</svg>