<?xml version="1.0" encoding="utf-8"?>
<!-- Generator: Adobe Illustrator 16.0.0, SVG Export Plug-In . SVG Version: 6.00 Build 0)  -->
<!DOCTYPE svg PUBLIC "-//W3C//DTD SVG 1.1//EN" "http://www.w3.org/Graphics/SVG/1.1/DTD/svg11.dtd">
<svg version="1.1" id="Layer_1" xmlns="http://www.w3.org/2000/svg" xmlns:xlink="http://www.w3.org/1999/xlink" x="0px" y="0px"
	 width="272px" height="145.5px" viewBox="0 0 272 145.5" enable-background="new 0 0 272 145.5" xml:space="preserve">
<path fill="#FFFFFF" d="M0.564,103.564c0.87,0.646,2.645,1.937,5.387,1.937c2,0,3-1.129,3-2.517c0-3.709-8.516-4.291-8.516-10.322
	c0-3.645,3.129-5.936,7.773-5.936c2.483,0,5.419,0.646,5.419,1.483c0,0.322-0.097,0.517-0.193,1.032l-0.71,2.678
	c-0.936-0.484-2.548-1.322-4.483-1.322c-1.419,0-2.483,0.773-2.483,1.902c0,3.387,8.548,3.902,8.548,10.322
	c0,3.871-2.936,6.678-7.807,6.678c-3.29-0.032-4.838-0.742-5.967-1.389c-0.323-0.192-0.355-0.645-0.323-1.031L0.564,103.564z
	 M15.979,101.469c0-5.193,2.678-8.031,7.871-8.031c5.129,0,7.838,2.838,7.838,8.031c0,5.161-2.677,8.032-7.838,8.032
	C18.657,109.501,15.979,106.564,15.979,101.469z M23.85,97.211c-2.193,0-3.097,1.58-3.097,4.258c0,2.516,0.871,4.258,3.097,4.258
	c2.193,0,3.064-1.678,3.064-4.258C26.915,98.791,26.011,97.211,23.85,97.211z M32.813,94.533l5.355-1.098v8.58
	c0,2.518,0,3.518,2.032,3.518c1.387,0,2.483-0.871,2.773-1.26v-6.226c0-2.58-0.129-3.321-0.548-4.354h5.709
	c-0.451,1.421-0.548,1.774-0.548,4.354v6.774c0,2.064,0.258,2.773,0.677,3.58l-4.87,0.839l-0.227-1
	c-0.419,0.323-2.097,1.259-4.483,1.259c-5.129,0-5.129-2.484-5.129-5.518V99.63C33.555,96.598,33.297,95.92,32.813,94.533z
	 M50.098,97.501v-3.808h1.548v-3.805l4.613-0.84v4.645h2.58c0.452,0,1.161,0,1.581-0.096v1.096c0,2.389-0.129,2.808-2.226,2.808
	h-1.936v5.774c0,1.838,0.032,2.548,1.129,2.548c1.354,0,2.645-1.322,3.097-1.839v2.42c0,1.482-0.129,3.097-4.646,3.097
	c-4.193,0-4.193-1.808-4.193-4.968v-7.032H50.098z M62.611,109.21c0.581-1.032,0.678-1.839,0.678-4.387V90.921
	c0-2.71-0.129-3.194-0.678-4.323l5.323-1.063v9.161c0.838-0.483,2.258-1.258,4.387-1.258c5.064,0,5.097,2.547,5.097,6.58v4.807
	c0,2.613,0.097,3.097,0.71,4.387h-6.064c0.548-1.064,0.709-1.709,0.709-4.387v-4.42c0-1.87,0-3-1.968-3
	c-1.483,0-2.419,0.742-2.87,1.259v6.161c0,2.613,0.129,3.064,0.709,4.387L62.611,109.21L62.611,109.21z M77.058,93.693H83.8
	c-0.064,0.259-0.129,0.55-0.129,0.84c0,0.807,0.354,1.226,0.838,2.29l2.646,5.678l2.161-4.581l-0.451-0.902
	c-0.774-1.58-1.13-2.193-2.032-3.322h5.902c-0.032,0.291-0.097,0.58-0.097,0.902c0,0.582,0.549,1.742,0.871,2.42l2.613,5.291
	l2.193-5.098c0.258-0.581,0.807-1.902,0.807-2.549c0-0.322-0.13-0.71-0.259-0.969h6.452c-0.71,0.646-2.291,3.033-4,6.291
	l-4.968,9.517h-1l-4.129-8.032l-3.903,8.032h-0.968l-4.839-9.321C79.671,96.63,78.542,95.275,77.058,93.693z M109.245,103.598
	c0.226,0.711,0.871,2.227,3.161,2.227c1.871,0,3.581-1.227,4.258-1.742l1.71,3.227c-0.581,0.58-2.548,2.193-6.322,2.193
	c-4.968,0-7.936-3.227-7.936-8.258c0-4.71,2.774-7.807,7.387-7.807c5.355,0,6.646,4.418,6.646,7.129L109.245,103.598z
	 M108.665,99.598c0,0.291,0,0.549,0.032,0.84l4.902-1.582c-0.226-0.74-0.709-2.192-2.419-2.192
	C109.438,96.662,108.665,98.211,108.665,99.598z M121.208,104.34c0.87,0.549,2.87,1.807,4.838,1.807c1,0,1.839-0.322,1.839-1.322
	c0-2.258-7.29-1.354-7.29-6.709c0-3.291,2.646-4.678,6.193-4.678c2.646,0,5.032,0.678,5.032,1.871c0,0.321-0.161,0.645-0.29,1.031
	l-0.742,1.774c-1.032-0.646-2.549-1.452-4.549-1.452c-0.838,0-1.451,0.387-1.451,1.064c0,2.289,7.322,1.031,7.322,6.646
	c0,3.451-2.677,5.129-6.387,5.129c-2.968,0-5.483-1.063-5.483-2.097c0-0.228,0.097-0.518,0.226-0.937L121.208,104.34z
	 M133.43,97.501v-3.808h1.548v-3.805l4.614-0.84v4.645h2.58c0.451,0,1.16,0,1.58-0.096v1.096c0,2.389-0.129,2.808-2.225,2.808
	h-1.937v5.774c0,1.838,0.031,2.548,1.13,2.548c1.354,0,2.645-1.322,3.096-1.839v2.42c0,1.482-0.129,3.097-4.646,3.097
	c-4.194,0-4.194-1.808-4.194-4.968v-7.032H133.43z M157.584,86.889c0.58,0.064,1.516,0.129,3,0.129h8.031
	c1.355,0,1.582,0.549,1.582,1.322l0.096,3.129c-0.773-0.387-1.096-0.451-2.773-0.451h-3.772v4.549h2.805
	c1.066,0,1.55-0.032,2.291-0.227v4.258c-0.645-0.129-1.258-0.193-2.291-0.193h-2.805v5.13c0,3,0.354,3.709,0.871,4.677h-6.937
	c0.517-0.839,0.902-1.74,0.902-4.677V91.693C158.584,88.662,158.262,88.018,157.584,86.889z M172.031,109.21
	c0.582-1.161,0.711-1.839,0.711-4.387v-5.71c0-2.612-0.129-3.193-0.711-4.354l5.324-1.063v11.129c0,2.516,0.129,3.16,0.709,4.387
	L172.031,109.21L172.031,109.21z M172.355,89.114c0-1.322,1.096-2.388,2.418-2.388c1.354,0,2.451,1.064,2.451,2.388
	c0,1.354-1.097,2.419-2.451,2.419C173.451,91.533,172.355,90.469,172.355,89.114z M179.74,109.21
	c0.58-1.097,0.676-1.903,0.676-4.387v-5.71c0-2.58-0.096-3.227-0.676-4.354l4.773-1.063l0.159,1.193
	c0.808-0.517,2.582-1.451,4.775-1.451c5.096,0,5.096,2.354,5.096,6.967v4.42c0,2.387,0.099,3.322,0.711,4.387h-6.063
	c0.547-0.968,0.709-1.968,0.709-4.387v-4.42c0-1.967,0-3-1.969-3c-1.482,0-2.418,0.808-2.869,1.259v6.161
	c0,2.419,0.129,3.29,0.709,4.387L179.74,109.21L179.74,109.21z M197.701,98.759l-0.482-2.032c-0.063-0.322-0.129-0.807-0.129-0.968
	c0-1.097,3.451-2.321,6.611-2.321c3.484,0,5.322,1.031,5.322,4.129l0.063,6.807c0,1.967,0.519,2.773,1.291,3.516l-2.709,1.291
	c-0.387,0.16-0.742,0.322-1.162,0.322c-0.58,0-0.87-0.581-1.063-1.259c-0.807,0.612-2,1.259-4,1.259
	c-2.902,0-4.773-1.773-4.773-4.646c0-4.741,5.42-5.321,7.838-5.516v-0.71c0-0.968-0.16-1.774-1.773-1.774
	C200.637,96.855,198.541,98.146,197.701,98.759z M204.572,105.438l-0.064-3.064c-0.936,0.064-3.516,0.419-3.516,2.354
	c0,1,0.645,1.612,1.613,1.612C203.25,106.339,204.186,105.727,204.572,105.438z M211.697,109.21c0.58-1.097,0.678-1.903,0.678-4.387
	v-5.71c0-2.58-0.098-3.227-0.678-4.354l4.773-1.063l0.161,1.193c0.808-0.517,2.58-1.451,4.772-1.451
	c5.099,0,5.099,2.354,5.099,6.967v4.42c0,2.387,0.097,3.322,0.709,4.387h-6.063c0.549-0.968,0.709-1.968,0.709-4.387v-4.42
	c0-1.967,0-3-1.967-3c-1.484,0-2.42,0.808-2.871,1.259v6.161c0,2.419,0.129,3.29,0.709,4.387L211.697,109.21L211.697,109.21z
	 M240.338,98.63c-0.42-0.45-1.969-1.45-3.549-1.45c-2.193,0-3.58,1.611-3.58,4.096c0,2.613,1.225,4.517,3.58,4.517
	c1.773,0,3.742-1.483,4.289-1.968l0.098,2.58c0,0.484,0.031,1.13-0.033,1.322c-0.322,0.742-2.451,1.742-5.225,1.774
	c-4.549,0-7.516-2.808-7.516-8.129c0-4.937,2.838-7.937,7.967-7.937c3.129,0,5.227,1.258,5.227,1.969
	c0,0.482-0.227,0.871-0.389,1.289L240.338,98.63z M243.012,109.21c0.58-1.161,0.709-1.839,0.709-4.387v-5.71
	c0-2.612-0.129-3.193-0.709-4.354l5.322-1.063v11.129c0,2.516,0.129,3.16,0.709,4.387L243.012,109.21L243.012,109.21z
	 M243.334,89.114c0-1.322,1.098-2.388,2.42-2.388c1.354,0,2.451,1.064,2.451,2.388c0,1.354-1.098,2.419-2.451,2.419
	C244.432,91.533,243.334,90.469,243.334,89.114z M252.17,98.759l-0.484-2.032c-0.063-0.322-0.129-0.807-0.129-0.968
	c0-1.097,3.451-2.321,6.613-2.321c3.482,0,5.322,1.031,5.322,4.129l0.064,6.807c0,1.967,0.516,2.773,1.291,3.516l-2.712,1.291
	c-0.387,0.16-0.741,0.322-1.159,0.322c-0.582,0-0.871-0.581-1.064-1.259c-0.807,0.612-2,1.259-4,1.259
	c-2.904,0-4.775-1.773-4.775-4.646c0-4.741,5.42-5.321,7.84-5.516v-0.71c0-0.968-0.162-1.774-1.774-1.774
	C255.105,96.855,253.008,98.146,252.17,98.759z M259.041,105.438l-0.064-3.064c-0.936,0.064-3.518,0.419-3.518,2.354
	c0,1,0.646,1.612,1.613,1.612C257.719,106.339,258.654,105.727,259.041,105.438z M266.102,109.21
	c0.58-1.258,0.709-1.903,0.709-4.387V90.921c0-2.549-0.129-3.129-0.709-4.354l5.322-1.064v19.322c0,2.322,0.129,3.258,0.709,4.387
	L266.102,109.21L266.102,109.21z M120.153,0.699l15.62,32.776l15.528-33.016c0,0-8.219,13.098-15.613,13.03
	C128.291,13.421,120.153,0.699,120.153,0.699 M139.191,6.928c-0.027-1.877-1.57-3.375-3.445-3.349
	c-1.874,0.026-3.372,1.571-3.344,3.447c0.028,1.876,1.569,3.375,3.443,3.347C137.721,10.345,139.219,8.804,139.191,6.928
	 M95.801,41.059l35.999-4.728L105.199,11.36c0,0,9.917,11.865,7.567,18.877C110.415,37.251,95.801,41.059,95.801,41.059
	 M107.606,24.878c-1.792-0.558-3.693,0.45-4.246,2.241c-0.553,1.79,0.449,3.692,2.243,4.247c1.793,0.553,3.695-0.45,4.248-2.243
	C110.404,27.331,109.401,25.429,107.606,24.878 M170.082,58.354l-31.9-17.336l6.844,35.838c0,0-1.051-15.429,4.974-19.719
	C156.023,52.843,170.082,58.354,170.082,58.354 M151.021,64.506c1.125,1.502,3.252,1.807,4.754,0.686
	c1.5-1.125,1.807-3.258,0.682-4.754c-1.127-1.504-3.256-1.813-4.754-0.686C150.199,60.876,149.896,63.003,151.021,64.506
	 M166.063,11.388l-26.345,24.985l36.197,4.565c0,0-14.998-3.77-17.217-10.824C156.48,23.058,166.063,11.388,166.063,11.388
	 M166.021,31.418c1.776-0.604,2.723-2.533,2.119-4.308c-0.605-1.777-2.535-2.724-4.312-2.119c-1.776,0.605-2.724,2.537-2.119,4.311
	C162.318,31.077,164.246,32.023,166.021,31.418 M126.66,76.691l6.629-35.697l-31.972,17.58c0,0,14.351-5.765,20.292-1.36
	C127.552,61.614,126.66,76.691,126.66,76.691 M114.916,60.463c-1.08,1.532-0.712,3.651,0.821,4.732
	c1.535,1.082,3.653,0.715,4.731-0.822c1.083-1.534,0.714-3.652-0.819-4.73C118.116,58.559,116,58.927,114.916,60.463"/>
<path fill="#FFFFFF" d="M11.371,122.076h2.738l3.525,13.391h-2.231l-0.825-3.282h-3.919l-0.863,3.282H7.563L11.371,122.076z
	 M14.221,130.478l-1.537-6.601h-0.038l-1.594,6.601H14.221z M23.077,122.076h4.332c1.987,0,3.601,0.881,3.601,3.244
	c0,1.632-0.638,2.625-1.969,3.038v0.037c1.462,0.263,2.4,1.146,2.4,3.413c0,2.23-1.613,3.656-4.126,3.656h-4.238V122.076z
	 M26.901,127.721c1.294,0,1.97-0.862,1.97-2.119c0-1.594-0.957-1.913-2.157-1.913h-1.5v4.032H26.901z M27.333,133.853
	c1.275,0,1.969-0.825,1.969-2.362c0-1.443-0.862-2.27-2.1-2.27h-1.989v4.632H27.333z M34.762,130.684v0.58
	c0,1.352,0.169,3.076,1.688,3.076c1.443,0,1.612-1.649,1.612-2.25h1.913c0,2.23-1.351,3.639-3.544,3.639
	c-1.65,0-3.694-0.488-3.694-5.157c0-2.646,0.562-5.457,3.731-5.457c2.812,0,3.563,1.688,3.563,4.5v1.069H34.762z M38.006,129.297
	v-0.545c0-1.274-0.413-2.25-1.557-2.25c-1.294,0-1.688,1.274-1.688,2.588v0.207H38.006z M40.802,125.377h1.388v-2.871h2.025v2.869
	h1.65v1.502h-1.65v6.02c0,0.787,0.225,1.068,0.919,1.068c0.3,0,0.544-0.02,0.731-0.057v1.5c-0.432,0.112-0.994,0.169-1.632,0.169
	c-1.369,0-2.044-0.375-2.044-2.438v-6.262h-1.388L40.802,125.377L40.802,125.377z M46.018,125.377h1.388v-2.871h2.025v2.869h1.65
	v1.502h-1.65v6.02c0,0.787,0.225,1.068,0.919,1.068c0.3,0,0.544-0.02,0.731-0.057v1.5c-0.432,0.112-0.994,0.169-1.632,0.169
	c-1.369,0-2.044-0.375-2.044-2.438v-6.262h-1.388L46.018,125.377L46.018,125.377z M53.875,130.684v0.58
	c0,1.352,0.169,3.076,1.688,3.076c1.443,0,1.612-1.649,1.612-2.25h1.913c0,2.23-1.351,3.639-3.544,3.639
	c-1.65,0-3.694-0.488-3.694-5.157c0-2.646,0.562-5.457,3.731-5.457c2.812,0,3.563,1.688,3.563,4.5v1.069H53.875z M57.122,129.297
	v-0.545c0-1.274-0.413-2.25-1.557-2.25c-1.294,0-1.688,1.274-1.688,2.588v0.207H57.122z M60.817,125.377h2.025v1.575h0.037
	c0.45-1.126,1.2-1.838,2.344-1.838c0.226,0,0.356,0.037,0.488,0.074v2.063c-0.15-0.039-0.507-0.113-0.845-0.113
	c-0.919,0-2.024,0.412-2.024,2.287v6.039h-2.025V125.377z M71.358,122.076h4.332c1.987,0,3.601,0.881,3.601,3.244
	c0,1.632-0.638,2.625-1.969,3.038v0.037c1.462,0.263,2.4,1.146,2.4,3.413c0,2.23-1.613,3.656-4.126,3.656h-4.238V122.076z
	 M75.184,127.721c1.294,0,1.97-0.862,1.97-2.119c0-1.594-0.957-1.913-2.157-1.913h-1.5v4.032H75.184z M75.615,133.853
	c1.275,0,1.969-0.825,1.969-2.362c0-1.443-0.862-2.27-2.1-2.27h-1.988v4.632H75.615z M87.919,133.365
	c0,0.375,0.226,0.713,0.525,0.713c0.131,0,0.263-0.019,0.338-0.057v1.313c-0.244,0.112-0.601,0.243-0.994,0.243
	c-0.9,0-1.65-0.356-1.707-1.331h-0.037c-0.544,0.993-1.331,1.481-2.513,1.481c-1.613,0-2.626-0.9-2.626-2.832
	c0-2.25,0.976-2.72,2.345-3.169l1.575-0.432c0.731-0.207,1.182-0.414,1.182-1.295c0-0.918-0.319-1.5-1.388-1.5
	c-1.351,0-1.538,0.957-1.538,1.932h-1.913c0-2.139,0.882-3.318,3.545-3.318c1.781,0,3.206,0.693,3.206,2.475V133.365L87.919,133.365
	z M86.007,130.139c-0.525,0.414-1.65,0.656-2.251,0.938c-0.581,0.281-0.825,0.882-0.825,1.632c0,0.844,0.413,1.52,1.257,1.52
	c1.219,0,1.819-0.919,1.819-2.4V130.139z M89.985,125.377h1.912v1.182h0.057c0.506-0.899,1.463-1.443,2.588-1.443
	c1.538,0,2.513,0.693,2.513,2.737v7.614H95.03v-6.92c0-1.313-0.394-1.819-1.406-1.819c-0.825,0-1.612,0.655-1.612,1.969v6.771
	h-2.025v-10.09H89.985z M99.007,122.076h2.024v7.52h0.038l3.057-4.219l2.344-0.02l-3.038,3.9l3.433,6.207h-2.213l-2.476-4.595
	l-1.145,1.388v3.207h-2.024V122.076z M112.326,122.076h7.145v1.801h-5.007v3.713h4.707v1.801h-4.707v6.076h-2.138V122.076z
	 M124.235,125.114c2.944,0,3.77,2.175,3.77,5.308c0,3.131-0.957,5.308-3.77,5.308c-2.794,0-3.751-2.177-3.751-5.308
	C120.484,127.289,121.31,125.114,124.235,125.114z M124.235,134.228c1.481,0,1.744-1.237,1.744-3.808
	c0-2.23-0.263-3.807-1.744-3.807c-1.463,0-1.726,1.575-1.726,3.807C122.509,132.99,122.772,134.228,124.235,134.228z
	 M129.563,125.377h2.025v1.575h0.037c0.45-1.126,1.2-1.838,2.344-1.838c0.226,0,0.356,0.037,0.488,0.074v2.063
	c-0.15-0.039-0.507-0.113-0.845-0.113c-0.919,0-2.024,0.412-2.024,2.287v6.039h-2.025V125.377z M191.464,122.076h2.738l3.524,13.391
	h-2.231l-0.824-3.282h-3.92l-0.863,3.282h-2.23L191.464,122.076z M194.313,130.478l-1.537-6.603h-0.037l-1.594,6.603H194.313z
	 M202.888,128.32v-0.262c0-0.807-0.281-1.557-1.332-1.557c-0.807,0-1.443,0.375-1.443,1.312c0,0.787,0.355,1.106,1.424,1.481
	l1.295,0.449c1.5,0.506,2.193,1.313,2.193,2.906c0,2.156-1.574,3.076-3.619,3.076c-2.551,0-3.318-1.182-3.318-3.133v-0.375h1.8
	v0.318c0,1.163,0.413,1.801,1.575,1.801c1.105,0,1.65-0.563,1.65-1.48c0-0.751-0.395-1.238-1.107-1.482l-1.649-0.58
	c-1.519-0.525-2.156-1.295-2.156-2.906c0-1.896,1.369-2.775,3.451-2.775c2.567,0,3.149,1.5,3.149,2.756v0.45L202.888,128.32
	L202.888,128.32z M210.878,128.32v-0.262c0-0.807-0.281-1.557-1.332-1.557c-0.806,0-1.443,0.375-1.443,1.312
	c0,0.787,0.355,1.106,1.426,1.481l1.293,0.449c1.5,0.506,2.195,1.313,2.195,2.906c0,2.156-1.576,3.076-3.619,3.076
	c-2.551,0-3.32-1.182-3.32-3.133v-0.375h1.801v0.318c0,1.163,0.412,1.801,1.574,1.801c1.107,0,1.65-0.563,1.65-1.48
	c0-0.751-0.393-1.238-1.105-1.482l-1.649-0.58c-1.521-0.525-2.156-1.295-2.156-2.906c0-1.896,1.369-2.775,3.449-2.775
	c2.569,0,3.149,1.5,3.149,2.756v0.45L210.878,128.32L210.878,128.32z M217.876,125.114c2.942,0,3.77,2.175,3.77,5.308
	c0,3.131-0.957,5.308-3.77,5.308c-2.795,0-3.752-2.177-3.752-5.308C214.124,127.289,214.95,125.114,217.876,125.114z
	 M217.876,134.228c1.479,0,1.744-1.237,1.744-3.808c0-2.23-0.265-3.807-1.744-3.807c-1.463,0-1.728,1.575-1.728,3.807
	C216.149,132.99,216.413,134.228,217.876,134.228z M230.011,131.791c-0.131,2.418-0.957,3.938-3.451,3.938
	c-2.926,0-3.75-2.176-3.75-5.309c0-3.132,0.824-5.307,3.75-5.307c3.02-0.038,3.471,2.362,3.471,3.619h-2.025
	c0-0.938-0.264-2.157-1.444-2.119c-1.463,0-1.726,1.575-1.726,3.807c0,2.232,0.263,3.808,1.726,3.808
	c1.125,0.021,1.539-0.919,1.539-2.438h1.911V131.791z M231.626,121.926h2.024v2.024h-2.024V121.926z M231.626,125.377h2.024v10.09
	h-2.024V125.377z M242.315,133.365c0,0.375,0.225,0.713,0.525,0.713c0.131,0,0.262-0.019,0.338-0.057v1.313
	c-0.244,0.112-0.602,0.243-0.994,0.243c-0.9,0-1.65-0.356-1.707-1.331h-0.037c-0.545,0.993-1.332,1.481-2.514,1.481
	c-1.613,0-2.625-0.9-2.625-2.832c0-2.25,0.975-2.72,2.344-3.169l1.576-0.432c0.73-0.207,1.182-0.414,1.182-1.295
	c0-0.918-0.32-1.5-1.389-1.5c-1.35,0-1.537,0.957-1.537,1.932h-1.914c0-2.139,0.883-3.318,3.545-3.318
	c1.781,0,3.207,0.693,3.207,2.475V133.365z M240.403,130.139c-0.525,0.414-1.65,0.656-2.252,0.938
	c-0.58,0.281-0.824,0.882-0.824,1.632c0,0.844,0.412,1.52,1.256,1.52c1.219,0,1.82-0.919,1.82-2.4V130.139z M243.479,125.377h1.389
	v-2.871h2.025v2.869h1.65v1.502h-1.65v6.02c0,0.787,0.225,1.068,0.918,1.068c0.301,0,0.545-0.02,0.732-0.057v1.5
	c-0.433,0.112-0.994,0.169-1.633,0.169c-1.369,0-2.043-0.375-2.043-2.438v-6.262h-1.39L243.479,125.377L243.479,125.377z
	 M251.339,130.684v0.58c0,1.352,0.168,3.076,1.688,3.076c1.443,0,1.613-1.649,1.613-2.25h1.912c0,2.23-1.35,3.639-3.543,3.639
	c-1.65,0-3.695-0.488-3.695-5.157c0-2.646,0.563-5.457,3.732-5.457c2.812,0,3.562,1.688,3.562,4.5v1.069H251.339z M254.583,129.297
	v-0.545c0-1.274-0.412-2.25-1.557-2.25c-1.293,0-1.688,1.274-1.688,2.588v0.207H254.583z M262.63,128.32v-0.262
	c0-0.807-0.281-1.557-1.332-1.557c-0.805,0-1.443,0.375-1.443,1.312c0,0.787,0.355,1.106,1.426,1.481l1.293,0.449
	c1.5,0.506,2.195,1.313,2.195,2.906c0,2.156-1.576,3.076-3.619,3.076c-2.551,0-3.32-1.182-3.32-3.133v-0.375h1.801v0.318
	c0,1.163,0.412,1.801,1.574,1.801c1.107,0,1.65-0.563,1.65-1.48c0-0.751-0.393-1.238-1.105-1.482l-1.649-0.58
	c-1.521-0.525-2.156-1.295-2.156-2.906c0-1.896,1.369-2.775,3.449-2.775c2.569,0,3.149,1.5,3.149,2.756v0.45L262.63,128.32
	L262.63,128.32z M141.337,120.381c-0.533,0-0.756,0.223-0.756,0.578l0,0l0.088,13.672l0,0c0,0.668,0.223,0.713,0.803,0.713l0,0
	h1.469l0,0c0.4,0,0.445-0.133,0.445-0.489l0,0l-0.088-4.765l0,0c0-0.713,0.043-1.024,0.354-1.024c1.022,0,1.826,1.915,1.959,3.116
	c0.402,3.117,0.402,3.162,1.336,3.162l0,0h0.979l0,0c0.445,0,0.578-0.045,0.578-0.399c0-4.767-2.358-6.19-3.383-6.813
	c3.295-1.871,3.519-2.004,3.963-6.414c0.445-4.453,0.937-6.189,3.74-6.189c3.83,0,3.83,3.652,3.83,7.705
	c0,0.534,0.09,0.712,0.623,0.712l0,0h1.068l0,0c0.848,0,0.848,0,0.848-2.806c-0.09-1.381-0.313-2.539-0.668-3.43
	c-0.936-2.359-2.852-3.695-5.389-3.695c-3.43,0-5.479,2.004-6.234,5.255c-0.313,1.425-0.268,2.806-0.58,4.409
	c-0.268,1.425-1.246,3.295-2.627,3.295c-0.357,0-0.4-0.313-0.4-0.98l0,0v-4.365l0,0c0-1.023-0.045-1.246-0.758-1.246l0,0H141.337
	L141.337,120.381z M168.987,125.549h-0.891c-0.535,0-0.668,0-1.023,0.267c-0.848-0.401-1.248-0.535-1.738-0.535
	c-1.914,0-3.385,2.405-3.385,5.745c0,2.85,1.293,4.409,3.029,4.409c0.623,0,1.068-0.134,1.826-0.49
	c0.178,0.979,0.223,1.247,0.223,2.228c0,4.187-0.625,6.77-3.475,6.77c-1.646,0-2.895-1.202-3.43-2.717
	c-0.222-0.668-0.312-1.158-0.355-2.271c-0.088-1.781-0.088-1.781-0.801-1.781h-1.293c-0.533,0-0.668,0.09-0.668,0.803
	c0,4.32,2.494,7.525,6.014,7.525c4.898,0,6.412-3.964,6.412-9.263v-7.481c0-2.762,0.178-2.228,0.178-2.896
	C169.61,125.592,169.522,125.549,168.987,125.549z M165.964,133.256c-0.892,0-1.424-1.024-1.424-2.584
	c0-2.359,0.623-3.429,1.469-3.429c0.891,0,0.979,0.802,0.979,1.736C166.989,132.721,166.944,133.256,165.964,133.256z
	 M157.817,125.239c-1.604,0-2.451,0.802-3.475,2.183l-0.269-0.134v-0.891c0-0.579-0.043-0.847-0.354-0.847
	c-0.58,0-1.203,0.268-1.736,0.58c-0.625-0.58-0.668-0.58-1.113-0.58h-0.713c-0.713,0-0.803,0.09-0.803,0.224l0.135,8.417
	c0,1.068,0,1.156,0.668,1.156h0.801c0.847,0,0.892-0.178,0.892-1.022v-3.028c0-3.027,0.312-3.207,2.271-3.474
	c-0.354,1.603-0.399,2.315-0.399,3.117c0,2.896,1.514,4.721,3.829,4.721c2.582,0,4.097-2.227,4.097-5.434
	C161.646,127.287,160.31,125.239,157.817,125.239z M157.677,133.479c-0.98,0-1.336-1.024-1.336-2.405c0-2.494,0.488-3.65,1.336-3.65
	c0.979,0,1.424,1.158,1.424,2.761C159.101,132.321,158.567,133.479,157.677,133.479z M177.272,131.297h-1.336
	c-1.113,0-0.49,2.095-1.916,2.095c-0.801,0-1.336-0.98-1.336-2.14c0-0.488,0.178-0.711,0.713-0.711h3.473
	c0.803,0,0.937-0.135,0.937-0.625c0-2.806-1.291-4.765-3.695-4.765c-2.493,0-4.053,2.494-4.053,5.21
	c0,2.852,1.291,5.166,4.008,5.166c1.69,0,3.74-1.604,3.74-3.74C177.806,131.385,177.673,131.297,177.272,131.297z M174.114,127.199
	c0.445,0,1.158,0.579,1.158,1.158c0,0.268-0.223,0.49-0.49,0.49h-1.246c-0.312,0-0.578-0.178-0.578-0.445
	C172.958,127.646,173.892,127.199,174.114,127.199z M179.009,125.547c-0.355,0-0.533,0.088-0.533,0.312l0,0l0.088,9.04l0,0
	c0,0.4,0.445,0.445,0.891,0.445l0,0h0.849l0,0c0.487,0,0.577-0.224,0.577-0.758l0,0v-3.474l0,0c0-1.604,0.269-2.315,0.445-2.673
	c0.668-1.247,1.871,0,1.871-1.469l0,0v-0.936l0,0c0-0.355-0.135-0.578-0.58-0.578c-0.354,0-0.49,0.088-1.736,0.756
	c-0.399-0.623-0.577-0.668-1.022-0.668l0,0h-0.849V125.547z M171.696,136.061c-0.191-0.191-0.426-0.288-0.699-0.288
	c-0.271,0-0.504,0.097-0.695,0.288c-0.192,0.193-0.288,0.425-0.288,0.695c0,0.274,0.096,0.51,0.286,0.701
	c0.191,0.193,0.425,0.291,0.697,0.291c0.273,0,0.508-0.098,0.699-0.291c0.193-0.193,0.289-0.427,0.289-0.701
	C171.985,136.484,171.89,136.252,171.696,136.061L171.696,136.061L171.696,136.061L171.696,136.061z M171.601,136.157
	L171.601,136.157L171.601,136.157c-0.166-0.167-0.367-0.25-0.602-0.25c-0.235,0-0.435,0.083-0.601,0.25
	c-0.166,0.166-0.248,0.366-0.248,0.603c0,0.235,0.082,0.438,0.246,0.604c0.166,0.167,0.365,0.25,0.603,0.25
	c0.236,0,0.436-0.083,0.602-0.25c0.164-0.166,0.246-0.368,0.246-0.604C171.847,136.523,171.765,136.323,171.601,136.157
	L171.601,136.157z M170.491,136.223h0.631c0.189,0,0.353,0.104,0.353,0.308c0,0.111-0.052,0.229-0.16,0.271
	c0.09,0.033,0.146,0.134,0.158,0.269c0.004,0.054,0.006,0.181,0.034,0.229h-0.332c-0.016-0.055-0.021-0.109-0.024-0.166
	c-0.01-0.103-0.021-0.209-0.149-0.209h-0.176v0.375h-0.332v-1.076H170.491z M170.823,136.693h0.174c0.062,0,0.146-0.012,0.146-0.107
	c0-0.067-0.037-0.106-0.164-0.106h-0.154L170.823,136.693L170.823,136.693z"/>
</svg>
