<?xml version="1.0" encoding="utf-8"?>
<!-- Generator: Adobe Illustrator 16.0.0, SVG Export Plug-In . SVG Version: 6.00 Build 0)  -->
<!DOCTYPE svg PUBLIC "-//W3C//DTD SVG 1.1//EN" "http://www.w3.org/Graphics/SVG/1.1/DTD/svg11.dtd">
<svg version="1.1" id="Capa_1" xmlns="http://www.w3.org/2000/svg" xmlns:xlink="http://www.w3.org/1999/xlink" x="0px" y="0px"
	 width="512px" height="512px" viewBox="0 0 512 512" enable-background="new 0 0 512 512" xml:space="preserve">
<g>
	<path fill="#003671" d="M431.667,0H80.333C66.62,0,55.467,11.162,55.467,24.866v462.268C55.467,500.839,66.62,512,80.333,512
		h351.334c13.713,0,24.866-11.161,24.866-24.866V24.866C456.533,11.162,445.38,0,431.667,0z M439.467,487.134
		c0,4.301-3.499,7.8-7.8,7.8H80.333c-4.301,0-7.8-3.499-7.8-7.8V24.866c0-4.301,3.499-7.799,7.8-7.799h351.334
		c4.301,0,7.8,3.499,7.8,7.799V487.134z"/>
	<path fill="#003671" d="M98.133,469.333H192v-93.866H98.133V469.333z M115.2,392.533h59.733v59.733H115.2V392.533z"/>
	<path fill="#003671" d="M209.067,469.333h93.867v-93.866h-93.867V469.333z M226.133,392.533h59.734v59.733h-59.734V392.533z"/>
	<path fill="#003671" d="M320,469.333h93.866v-204.8H320V469.333z M337.066,281.6H396.8v170.667h-59.733V281.6z"/>
	<path fill="#003671" d="M98.133,358.4H192v-93.867H98.133V358.4z M115.2,281.6h59.733v59.734H115.2V281.6z"/>
	<path fill="#003671" d="M209.067,358.4h93.867v-93.867h-93.867V358.4z M226.133,281.6h59.734v59.734h-59.734V281.6z"/>
	<path fill="#003671" d="M98.133,247.467H192V153.6H98.133V247.467z M115.2,170.667h59.733V230.4H115.2V170.667z"/>
	<path fill="#003671" d="M209.067,247.467h93.867V153.6h-93.867V247.467z M226.133,170.667h59.734V230.4h-59.734V170.667z"/>
	<path fill="#003671" d="M320,247.467h93.866V153.6H320V247.467z M337.066,170.667H396.8V230.4h-59.733V170.667z"/>
	<path fill="#003671" d="M98.133,128h315.733V42.667H98.133V128z M115.2,59.733h281.6v51.2H115.2V59.733z"/>
</g>
</svg>
