<?xml version="1.0" encoding="utf-8"?>
<!-- Generator: Adobe Illustrator 16.0.0, SVG Export Plug-In . SVG Version: 6.00 Build 0)  -->
<!DOCTYPE svg PUBLIC "-//W3C//DTD SVG 1.1//EN" "http://www.w3.org/Graphics/SVG/1.1/DTD/svg11.dtd">
<svg version="1.1" id="Capa_1" xmlns="http://www.w3.org/2000/svg" xmlns:xlink="http://www.w3.org/1999/xlink" x="0px" y="0px"
	 width="1000px" height="1000px" viewBox="0 0 1000 1000" enable-background="new 0 0 1000 1000" xml:space="preserve">
<g>
	<g>
		<path fill="#2BA8E0" d="M406.983,623.631l-36.75-12.217c-12.087-4.027-20.239-15.342-20.232-28.083
			c0-18.41,14.923-33.333,33.333-33.333s33.333,14.923,33.333,33.333H450c-0.114-30.307-20.654-56.723-50-64.3v-35.7h-33.333v35.7
			c-29.344,7.577-49.885,33.993-50,64.3c-0.021,27.089,17.313,51.146,43.017,59.699l36.75,12.217
			c12.088,4.027,20.239,15.342,20.233,28.083c0,18.411-14.923,33.334-33.333,33.334s-33.333-14.923-33.333-33.334h-33.334
			c0.115,30.307,20.656,56.723,50,64.3v35.7H400v-35.7c29.346-7.577,49.886-33.993,50-64.3
			C450.021,656.241,432.688,632.185,406.983,623.631z"/>
	</g>
</g>
<g>
	<g>
		<path fill="#3A82C4" d="M983.331,366.665H646.399c-35.221-43.404-79.498-78.591-129.732-103.1v-71.899l59.999-45
			c4.196-3.148,6.667-8.087,6.667-13.333V16.667C583.333,7.462,575.87,0,566.666,0H500c-4.421,0-8.658,1.758-11.783,4.883
			l-21.55,21.55l-21.55-21.55C441.992,1.758,437.754,0,433.334,0h-100c-4.421,0-8.658,1.758-11.783,4.883l-21.55,21.55l-21.55-21.55
			C275.326,1.758,271.088,0,266.667,0h-66.667c-9.204,0-16.667,7.462-16.667,16.667v116.667c0,5.246,2.471,10.185,6.667,13.333
			l60,45v72.066C123.835,324.782,0.002,488.765,0.002,699.08c0,191.232,139.716,300.916,383.332,300.916
			c39.543,0.142,79.016-3.362,117.916-10.467c2.527,6.304,8.625,10.443,15.416,10.467h466.665c9.204,0,16.667-7.463,16.667-16.667
			V383.332C999.998,374.127,992.535,366.665,983.331,366.665z M216.668,125V33.333h43.1l28.45,28.45
			c6.508,6.506,17.058,6.506,23.566,0l28.45-28.45h86.199l28.45,28.45c6.508,6.506,17.058,6.506,23.566,0l28.45-28.45H550V125
			l-55.55,41.667H272.218L216.668,125z M483.333,199.999v50H283.334v-50H483.333z M500,774.547
			c-77.987,64.574-193.556,53.704-258.132-24.283c-64.575-77.987-53.704-193.556,24.283-258.133
			c67.832-56.166,166.016-56.166,233.847,0v282.416H500z M500,383.332v67.617c-100.723-64.604-234.747-35.325-299.351,65.397
			c-64.604,100.723-35.325,234.747,65.397,299.351c71.283,45.723,162.672,45.723,233.955,0v140.166
			c-38.449,7.354-77.521,10.971-116.666,10.801c-105.233,0-349.999-26.067-349.999-267.583
			c0-159.449,95.566-357.848,255.565-415.748h188.983c47.146,17.896,89.535,46.41,123.883,83.333h-85.1
			C507.463,366.665,500,374.127,500,383.332z M966.665,966.663H533.333V533.331h433.332V966.663z M966.665,499.998H533.333v-100
			h433.332V499.998z"/>
	</g>
</g>
<g>
	<g>
		<path fill="#2BA8E0" d="M649.999,566.664h-66.666c-9.204,0-16.667,7.463-16.667,16.667v66.666c0,9.204,7.463,16.667,16.667,16.667
			h66.666c9.204,0,16.667-7.463,16.667-16.667v-66.666C666.666,574.127,659.203,566.664,649.999,566.664z M633.333,633.331H600
			v-33.334h33.333V633.331z"/>
	</g>
</g>
<g>
	<g>
		<path fill="#2BA8E0" d="M783.332,566.664h-66.666c-9.204,0-16.667,7.463-16.667,16.667v66.666c0,9.204,7.463,16.667,16.667,16.667
			h66.666c9.204,0,16.667-7.463,16.667-16.667v-66.666C799.999,574.127,792.536,566.664,783.332,566.664z M766.666,633.331h-33.334
			v-33.334h33.334V633.331z"/>
	</g>
</g>
<g>
	<g>
		<path fill="#2BA8E0" d="M916.665,566.664h-66.667c-9.203,0-16.666,7.463-16.666,16.667v66.666c0,9.204,7.463,16.667,16.666,16.667
			h66.667c9.204,0,16.667-7.463,16.667-16.667v-66.666C933.332,574.127,925.869,566.664,916.665,566.664z M899.998,633.331h-33.333
			v-33.334h33.333V633.331z"/>
	</g>
</g>
<g>
	<g>
		<path fill="#2BA8E0" d="M649.999,699.997h-66.666c-9.204,0-16.667,7.463-16.667,16.667v66.666c0,9.204,7.463,16.667,16.667,16.667
			h66.666c9.204,0,16.667-7.463,16.667-16.667v-66.666C666.666,707.46,659.203,699.997,649.999,699.997z M633.333,766.663H600
			V733.33h33.333V766.663z"/>
	</g>
</g>
<g>
	<g>
		<path fill="#2BA8E0" d="M783.332,699.997h-66.666c-9.204,0-16.667,7.463-16.667,16.667v66.666c0,9.204,7.463,16.667,16.667,16.667
			h66.666c9.204,0,16.667-7.463,16.667-16.667v-66.666C799.999,707.46,792.536,699.997,783.332,699.997z M766.666,766.663h-33.334
			V733.33h33.334V766.663z"/>
	</g>
</g>
<g>
	<g>
		<path fill="#2BA8E0" d="M649.999,833.33h-66.666c-9.204,0-16.667,7.462-16.667,16.666v66.667c0,9.204,7.463,16.666,16.667,16.666
			h66.666c9.204,0,16.667-7.462,16.667-16.666v-66.667C666.666,840.792,659.203,833.33,649.999,833.33z M633.333,899.996H600
			v-33.333h33.333V899.996z"/>
	</g>
</g>
<g>
	<g>
		<path fill="#2BA8E0" d="M783.332,833.33h-66.666c-9.204,0-16.667,7.462-16.667,16.666v66.667c0,9.204,7.463,16.666,16.667,16.666
			h66.666c9.204,0,16.667-7.462,16.667-16.666v-66.667C799.999,840.792,792.536,833.33,783.332,833.33z M766.666,899.996h-33.334
			v-33.333h33.334V899.996z"/>
	</g>
</g>
<g>
	<g>
		<path fill="#2BA8E0" d="M916.665,699.997h-66.667c-9.203,0-16.666,7.463-16.666,16.667v199.999
			c0,9.204,7.463,16.666,16.666,16.666h66.667c9.204,0,16.667-7.462,16.667-16.666V716.664
			C933.332,707.46,925.869,699.997,916.665,699.997z M899.998,899.996h-33.333V733.33h33.333V899.996z"/>
	</g>
</g>
<g>
	<g>
		<rect x="899.998" y="433.332" fill="#2BA8E0" width="33.334" height="33.333"/>
	</g>
</g>
<g>
	<g>
		<rect x="833.332" y="433.332" fill="#2BA8E0" width="33.333" height="33.333"/>
	</g>
</g>
<g>
	<g>
		<rect x="766.666" y="433.332" fill="#2BA8E0" width="33.333" height="33.333"/>
	</g>
</g>
</svg>
