<?xml version="1.0" encoding="utf-8"?>
<!-- Generator: Adobe Illustrator 16.0.0, SVG Export Plug-In . SVG Version: 6.00 Build 0)  -->
<!DOCTYPE svg PUBLIC "-//W3C//DTD SVG 1.1//EN" "http://www.w3.org/Graphics/SVG/1.1/DTD/svg11.dtd">
<svg version="1.1" id="Capa_1" xmlns="http://www.w3.org/2000/svg" xmlns:xlink="http://www.w3.org/1999/xlink" x="0px" y="0px"
	 width="512px" height="512px" viewBox="0 0 512 512" enable-background="new 0 0 512 512" xml:space="preserve">
<path fill="#003671" d="M366.346,367.771c0,11.889-9.671,21.563-21.561,21.563c-11.889,0-21.563-9.672-21.563-21.563
	c0-11.893,9.671-21.563,21.563-21.563C356.675,346.211,366.346,355.882,366.346,367.771z M166.655,250.33
	c-11.889,0-21.56,9.67-21.56,21.563c0,11.891,9.671,21.562,21.56,21.562s21.56-9.671,21.56-21.562
	C188.215,260,178.542,250.33,166.655,250.33z M511.091,245.299c0,9.465-7.672,17.135-17.135,17.135c-0.014,0-0.03,0-0.046,0h-30.452
	v232.432c0,9.465-7.672,17.135-17.135,17.135H65.631c-9.463,0-17.135-7.67-17.135-17.135V262.434H18.044
	c-6.996,0-13.29-4.252-15.898-10.745c-2.609-6.491-1.01-13.916,4.039-18.757L244.118,4.768c6.627-6.358,17.089-6.358,23.719,0
	l237.202,227.46C508.742,235.372,511.091,240.063,511.091,245.299z M166.655,327.722c30.786,0,55.83-25.046,55.83-55.832
	c0-30.786-25.046-55.83-55.83-55.83c-30.785,0-55.83,25.046-55.83,55.833C110.825,302.678,135.87,327.722,166.655,327.722z
	 M202.083,416.902L335.788,242.77c5.763-7.505,4.351-18.261-3.154-24.025c-7.508-5.762-18.262-4.353-24.027,3.155L174.9,396.032
	c-5.762,7.505-4.35,18.261,3.155,24.025c3.112,2.39,6.781,3.545,10.425,3.545C193.621,423.603,198.708,421.298,202.083,416.902z
	 M400.615,367.771c0-30.785-25.044-55.832-55.83-55.832c-30.785,0-55.832,25.047-55.832,55.832s25.045,55.831,55.832,55.831
	C375.571,423.603,400.615,398.557,400.615,367.771z"/>
</svg>
