<?xml version="1.0" encoding="utf-8"?>
<!-- Generator: Adobe Illustrator 16.0.0, SVG Export Plug-In . SVG Version: 6.00 Build 0)  -->
<!DOCTYPE svg PUBLIC "-//W3C//DTD SVG 1.1//EN" "http://www.w3.org/Graphics/SVG/1.1/DTD/svg11.dtd">
<svg version="1.1" id="Capa_1" xmlns="http://www.w3.org/2000/svg" xmlns:xlink="http://www.w3.org/1999/xlink" x="0px" y="0px"
	 width="512px" height="512px" viewBox="0 0 512 512" enable-background="new 0 0 512 512" xml:space="preserve">
<g>
	<path fill="#D92027" d="M119.69,177.442c3-5.197,6.26-10.15,9.74-14.869L65.31,91.361c-10.195,11.83-19.446,24.764-27.541,38.785
		C1.5,192.964-4.661,264.893,14.778,329.254l87.509-38.96C94.071,253.163,99.178,212.971,119.69,177.442z M403.44,431.928
		C411.5,302.5,431.5,318.5,504.1,291.697l-159.021-22.932C362.5,326.5,403.44,431.928,403.44,431.928z M360.781,138.236
		c34.628,30.609,53.435,74.508,53.112,119.313l93.731,19.925c7.054-84.345-28.791-169.12-98.948-222.195L360.781,138.236z
		 M176.282,120.364c38.642-22.681,86.062-28.343,129.885-13.659l47.896-82.958C273.02-10.474,181.68,0.871,112.164,49.153
		L176.282,120.364z M241.016,413.225c-21.769-2.095-43.445-8.771-63.62-20.42c-20.175-11.648-36.797-27.083-49.495-44.885
		l-87.516,38.964c21.291,35.258,51.522,65.792,89.713,87.842c38.192,22.05,79.751,32.964,120.93,33.774L241.016,413.225z"/>
</g>
</svg>
