<svg xmlns="http://www.w3.org/2000/svg" xmlns:xlink="http://www.w3.org/1999/xlink" width="83" height="42" viewBox="0 0 83 42"><defs><path id="a" d="M.087.126h54.09v18.32H.087V.125z"/><path id="c" d="M5.42 4.796H.1V.295h5.32v4.501z"/><path id="e" d="M12.367 15.196H.051V.07h12.316z"/><path id="g" d="M62.705 33.345V.238H.268v33.107z"/><path id="i" d="M0 23.492V.05h35.65v23.442z"/></defs><g fill="none" fill-rule="evenodd"><g transform="translate(19.41 .5)"><mask id="b" fill="#fff"><use xlink:href="#a"/></mask><path fill="#003671" d="M35.098 4.868l7.735-1.746a.423.423 0 0 1 .375.086l5.88 4.901c.26.217.147.633-.196.72l-11.725 2.955a.419.419 0 0 1-.511-.271l-1.889-6.11c-.073-.235.082-.479.33-.535M8.894 6.193L20.96 7.784a.4.4 0 0 1 .334.547l-3.325 8.752a.451.451 0 0 1-.498.274L2.357 14.589a.399.399 0 0 1-.247-.653l6.372-7.575c.1-.126.25-.189.411-.168M43.206 1.74L31.028.15a2.794 2.794 0 0 0-.984.047L9.35 4.556c-.741.155-1.17.672-1.655 1.24L.15 14.622a.249.249 0 0 0-.047.256c.034.09.108.151.205.17l16.852 3.266c1.033.2 1.96.172 2.98-.09l.467-.121.887-.767v-1.592c-.25.064-.46.088-.615-.056a.383.383 0 0 1-.115-.383l1.787-7.357a.435.435 0 0 1 .336-.323l9.944-2.245a.418.418 0 0 1 .506.296l1.526 6.26a.43.43 0 0 1-.326.51c-2.265.571-5.015 1.258-7.512 1.886.65.257 1.093.865 1.094 1.564v.27l25.855-6.668a.262.262 0 0 0 .198-.204.253.253 0 0 0-.104-.262l-9.342-6.759c-.462-.334-.94-.457-1.52-.533" mask="url(#b)"/></g><g transform="translate(26.421 37.25)"><mask id="d" fill="#fff"><use xlink:href="#c"/></mask><path fill="#797979" d="M1.794.295L.1.875c.712 2.238 4.338 3.741 5.32 3.921C3.645 4.241 2.291 2.531 1.794.295" mask="url(#d)"/></g><g transform="translate(28.758 26.75)"><mask id="f" fill="#fff"><use xlink:href="#e"/></mask><path fill="#797979" d="M5.904 11.89c1.907.003 3.59-1.901 3.76-4.252.17-2.351-1.24-4.26-3.147-4.262-1.907-.003-3.59 1.902-3.76 4.253-.17 2.352 1.239 4.26 3.147 4.262m6.463-4.953c.001.232-.004.466-.022.703-.3 4.177-3.291 7.56-6.68 7.556a4.953 4.953 0 0 1-.52-.034 4.98 4.98 0 0 1-.176-.02 5.049 5.049 0 0 1-.69-.154C1.625 14.204-.182 11.208.076 7.626.377 3.449 3.367.066 6.755.07c.735.001 1.424.17 2.054.461a5.332 5.332 0 0 1 1.56 1.108c.105.106.206.216.303.33l.05.06c.272.331.515.697.727 1.093.031.057.063.114.092.172a7.3 7.3 0 0 1 .252.568 6.417 6.417 0 0 1 .221.64c.024.08.05.158.073.239.051.195.096.395.134.599.013.07.022.141.033.212a8.666 8.666 0 0 1 .109 1.167c.002.074.005.146.005.22" mask="url(#f)"/></g><path fill="#797979" d="M65.246 25.25l-1.435.512c.769 2.5 3.841 3.828 4.673 3.988-1.504-.491-2.65-2.002-3.238-4.5"/><path fill="#797979" d="M70.55 27.55c1.69.002 3.18-1.698 3.33-3.796.15-2.099-1.097-3.802-2.786-3.804-1.69-.002-3.18 1.698-3.33 3.796-.15 2.099 1.098 3.802 2.786 3.804m5.724-4.42c0 .206-.005.415-.02.626-.266 3.729-2.914 6.748-5.915 6.744a4.33 4.33 0 0 1-.46-.03c-.053-.006-.105-.01-.156-.018a4.231 4.231 0 0 1-.61-.137c-2.352-.7-3.952-3.375-3.723-6.572.267-3.728 2.915-6.747 5.915-6.743.65 0 1.259.15 1.818.41.499.234.955.561 1.356.965l.024.025c.093.094.183.193.269.295l.043.054c.242.294.457.622.645.974.027.052.055.102.081.155a7.506 7.506 0 0 1 .321.767c.036.101.068.205.098.31.021.071.045.141.064.213.046.175.085.353.12.534l.029.19a7.614 7.614 0 0 1 .096 1.042l.005.196"/><g transform="translate(20.19 6.5)"><mask id="h" fill="#fff"><use xlink:href="#g"/></mask><path fill="#003671" d="M62.705 9.088a.796.796 0 0 0-.339-.662.788.788 0 0 1-.344-.66l-.013-2.087c-.012-1.908-1.324-3.463-3.223-3.823L50.731.243a.274.274 0 0 0-.303.155c-.053.116 3.161 1.867 3.265 1.943l1.656 1.224a.262.262 0 0 1 .105.267.265.265 0 0 1-.2.209L26.18 11.698l-.002-1.544a.76.76 0 0 0-.642-.745l-2.707-.472c-.75-.13-1.289.311-1.289 1.056v2.065l-1.607 1.351a.146.146 0 0 1-.022.02l-.01.008h-.007a.551.551 0 0 1-.177.059c-3.766.702-12.019 4.264-14.727 5.362-1.732.702-1.737 2.628-1.792 3.313-.179 2.227-.119 4.584-.119 4.584s-1.908.986-2.266 1.143c-.359.157-.47.693-.47.693s-.168 1.646 0 1.958c.169.312 1.2.497 1.2 1.394v1.402l6.86-2.275c-.786-7.471 3.335-9.867 6.52-10.296 3.758-.506 6.24 3.406 6.565 5.74a.155.155 0 0 0 .079.118.169.169 0 0 0 .144.015l22.824-7.213c-.179-9.36 7.138-9.946 9.584-8.598 1.412.778 2.45 2.457 2.72 4.434a.157.157 0 0 0 .078.119.169.169 0 0 0 .144.014l4.194-1.295c.485-.16.803-.997.8-1.493l-.004-.622c0-.071.041-.134.108-.163l.003-.001a.87.87 0 0 0 .544-.806V9.088z" mask="url(#h)"/></g><g transform="translate(.716 15.5)"><mask id="j" fill="#fff"><use xlink:href="#i"/></mask><path fill="#003671" d="M16.295 14.657l.004-1.083c.002-.361.002-.724.005-1.087.002-.448.278-.75.615-.67l2.676.633c.372.088.673.546.668 1.02l-.012 1.15-.012 1.144c-.005.47-.312.763-.681.655l-2.66-.779c-.335-.098-.604-.54-.603-.983m-2.424-1.876v1.003c0 .516-.302.847-.666.74l-.358-.105-.002-1.973-.005-1.986c.166.09.335.178.501.268.313.167.53.597.53 1.047v1.006M11.4 13.996l-.01-2.151-.009-2.168c.304.165.616.33.928.497 0 .686.002 1.37.005 2.053l.004 2.038-.918-.269m-2.192-.64c-.007-.713-.01-1.427-.016-2.142l-.017-2.159.763-.073a.421.421 0 0 1 .25.055l.686.368.012 2.23.01 2.214-1.688-.493m-1.291-.377c-.005-.63-.01-1.262-.017-1.894l-.018-1.906.822-.08.018 2.068.016 2.052-.821-.24m-.746-.219c-.297-.086-.538-.53-.544-.99a553.39 553.39 0 0 1-.01-.89l-.012-.895c-.004-.402.165-.7.417-.724l.41-.04c.005.608.012 1.214.019 1.82l.018 1.806-.298-.087m-2.73-.77l-1.654-.484c-.211-.061-.386-.4-.393-.754a29820.024 29820.024 0 0 1-.032-1.731c-.007-.357.158-.608.37-.558l1.66.393c.227.053.42.403.424.776l.014.905.013.903c.006.37-.177.617-.401.55m15.122 9.27c-.43-.191-.71-.308-.71-.925v-.925s0-1.466.395-1.755c.394-.289 1.191-.695 1.191-.695l1.29-.676c0-3.839 0-6.574 1.418-7.577 1.047-.74 8.608-3.529 12.503-4.941-.137-.02-.272-.031-.41-.06L16.77.057a.268.268 0 0 0-.152.012L4.8 4.358c-2.24.843-3.674 2.868-3.674 5.19v1.641a.172.172 0 0 1-.116.163l-.257.096c-.46.17-.754.582-.754 1.057v2.2c0 .682.391 1.252 1.025 1.5a.158.158 0 0 1 .104.15v.593c0 .46.271.855.715.992l17.802 5.496c.208.064.41.075.617.026v-1.43s0-.46-.699-.771" mask="url(#j)"/></g></g></svg>