<svg xmlns="http://www.w3.org/2000/svg" viewBox="0 0 23.76 23.73"><defs><style>.cls-1{fill:#3a82c4}.cls-2{fill:#2ba8e0}</style></defs><title>Asset 3</title><g id="Layer_2" data-name="Layer 2"><g id="_1" data-name="1"><path class="cls-1" d="M12.16 12.22l1.24.24L6.31 2.09 0 9.91l.88.17 5.31-6.59 5.97 8.73zM23.76 9.96L16.52 0l-9.6 1.76 7.37 10.79 9.47-2.59z"/><path class="cls-2" d="M13.4 23.73l9.27-3.72v-8.92l-9.27 2.57v10.07zM12.35 13v10.73L1.69 20.84V10.18l4.45-5.53 5.61 8.2zm-2.48 2.4a9.33 9.33 0 0 0-2.57-1.54v-1.67a2.14 2.14 0 0 1 .47.42 2.92 2.92 0 0 1 .32.64l2.36.17a3.21 3.21 0 0 0-1-1.66 5.16 5.16 0 0 0-2.17-1.08v-.58l-.93-.2v.57a3.3 3.3 0 0 0-2.35.27 1.73 1.73 0 0 0-.79 1.55 2.44 2.44 0 0 0 .39 1.36 3.21 3.21 0 0 0 .93 1 15.94 15.94 0 0 0 1.82.95v2a2.18 2.18 0 0 1-.62-.6 2.54 2.54 0 0 1-.31-.89l-2.56-.28a4 4 0 0 0 .34 1.06 3.74 3.74 0 0 0 .65.9 4.19 4.19 0 0 0 1 .77 7.5 7.5 0 0 0 1.51.6v1.09l.93.2v-1.1a5.34 5.34 0 0 0 1.32.1 2.64 2.64 0 0 0 1-.29 2.11 2.11 0 0 0 .79-.71 1.91 1.91 0 0 0 .31-1.09 2.75 2.75 0 0 0-.86-2m-3.5-2A1.62 1.62 0 0 1 5.8 13a.8.8 0 0 1-.16-.48.5.5 0 0 1 .16-.39 1 1 0 0 1 .56-.13zm1.72 4.2a1.25 1.25 0 0 1-.79.19V16a2.65 2.65 0 0 1 .83.6.89.89 0 0 1 .21.55.62.62 0 0 1-.25.51"/></g></g></svg>