<svg xmlns="http://www.w3.org/2000/svg" viewBox="0 0 23.76 32.75"><defs><style>.cls-1{fill:#666}.cls-2{fill:#3a83c4}.cls-3{fill:#29aae1}</style></defs><title>Asset 2</title><g id="Layer_2" data-name="Layer 2"><g id="_1" data-name="1"><path class="cls-1" d="M0 13.22l.88.17L6.19 6.8l5.97 8.73 1.24.24L6.31 5.4 0 13.22z"/><path class="cls-2" d="M13.4 17l9.27-2.57v8.92L13.4 27z"/><path class="cls-3" d="M12.35 16.27V27L1.69 24.14V13.48L6.14 8l5.61 8.2zM9.87 18.7a9.33 9.33 0 0 0-2.57-1.54V15.5a2.14 2.14 0 0 1 .47.42 2.92 2.92 0 0 1 .32.64l2.36.17a3.21 3.21 0 0 0-1-1.66A5.16 5.16 0 0 0 7.29 14v-.57l-.93-.2v.57A3.3 3.3 0 0 0 4 14a1.73 1.73 0 0 0-.79 1.55 2.44 2.44 0 0 0 .39 1.36 3.21 3.21 0 0 0 .93 1 15.94 15.94 0 0 0 1.82.95v2a2.18 2.18 0 0 1-.64-.59 2.54 2.54 0 0 1-.31-.89l-2.56-.28a4 4 0 0 0 .34 1.06 3.74 3.74 0 0 0 .65.9 4.19 4.19 0 0 0 1 .77 7.5 7.5 0 0 0 1.51.6v1.09l.93.2v-1.07a5.34 5.34 0 0 0 1.32.1 2.64 2.64 0 0 0 1-.29 2.11 2.11 0 0 0 .79-.71 1.91 1.91 0 0 0 .31-1.09 2.75 2.75 0 0 0-.86-2m-3.5-2a1.62 1.62 0 0 1-.56-.44.8.8 0 0 1-.16-.48.5.5 0 0 1 .16-.39 1 1 0 0 1 .56-.18zM8.08 21a1.25 1.25 0 0 1-.79.19V19.3a2.65 2.65 0 0 1 .83.6.89.89 0 0 1 .21.55.62.62 0 0 1-.25.51"/><path class="cls-2" d="M17.34 10A10.44 10.44 0 0 0 9.62.23a6.35 6.35 0 0 0-6.38 1.69L1.75 0l-.06 4.1 4.09 1-1.39-1.73A5 5 0 0 1 9.6 1.85a8.42 8.42 0 0 1 5.78 5.51L17.32 10z"/><path class="cls-1" d="M16.52 3.31l-.79.15A12.23 12.23 0 0 1 18 11.54L14.7 7.4A8.05 8.05 0 0 0 12.49 4L6.92 5l7.37 10.78 9.48-2.58z"/><path class="cls-2" d="M13.91 27.62l1.39 1.76a5 5 0 0 1-5.21 1.52 8.42 8.42 0 0 1-5.7-5.29l-1.74-.48a10.61 10.61 0 0 0 7.42 7.39 6.35 6.35 0 0 0 6.38-1.69l1.49 1.89.06-4.1z"/></g></g></svg>