<svg id="kroger" version="1.1" fill="#FFFFFF" xmlns="http://www.w3.org/2000/svg" xmlns:xlink="http://www.w3.org/1999/xlink" x="0px" y="0px" width="258px" height="32px" viewBox="0 0 258 32" enable-background="new 0 0 258 32" xml:space="preserve">
<path fill="#FFFFFF" d="M3.807,8.049h2.738l3.525,13.39H7.839l-0.825-3.282H3.095l-0.863,3.282H0L3.807,8.049z M6.657,16.45
	L5.12,9.849H5.082L3.488,16.45H6.657z M15.513,8.049h4.332c1.987,0,3.601,0.881,3.601,3.244c0,1.632-0.638,2.625-1.969,3.038v0.037
	c1.462,0.263,2.4,1.145,2.4,3.413c0,2.231-1.613,3.657-4.126,3.657h-4.238V8.049z M19.338,13.693c1.294,0,1.97-0.862,1.97-2.119
	c0-1.594-0.957-1.913-2.157-1.913h-1.5v4.032H19.338z M19.77,19.825c1.275,0,1.969-0.825,1.969-2.362c0-1.444-0.862-2.27-2.1-2.27
	H17.65v4.632H19.77z M27.198,16.656v0.581c0,1.351,0.169,3.076,1.688,3.076c1.443,0,1.612-1.65,1.612-2.251h1.913
	c0,2.231-1.351,3.639-3.544,3.639c-1.65,0-3.694-0.488-3.694-5.157c0-2.645,0.562-5.457,3.731-5.457c2.812,0,3.563,1.688,3.563,4.5
	v1.069H27.198z M30.443,15.269v-0.544c0-1.275-0.413-2.25-1.557-2.25c-1.294,0-1.688,1.274-1.688,2.588v0.206H30.443z
	 M33.239,11.349h1.388V8.479h2.025v2.869h1.65v1.501h-1.65v6.02c0,0.787,0.225,1.069,0.919,1.069c0.3,0,0.544-0.02,0.731-0.057v1.5
	c-0.432,0.112-0.994,0.169-1.632,0.169c-1.369,0-2.044-0.375-2.044-2.438V12.85h-1.388V11.349z M38.454,11.349h1.388V8.479h2.025
	v2.869h1.65v1.501h-1.65v6.02c0,0.787,0.225,1.069,0.919,1.069c0.3,0,0.544-0.02,0.731-0.057v1.5
	c-0.432,0.112-0.994,0.169-1.632,0.169c-1.369,0-2.044-0.375-2.044-2.438V12.85h-1.388V11.349z M46.312,16.656v0.581
	c0,1.351,0.169,3.076,1.688,3.076c1.443,0,1.612-1.65,1.612-2.251h1.913c0,2.231-1.351,3.639-3.544,3.639
	c-1.65,0-3.694-0.488-3.694-5.157c0-2.645,0.562-5.457,3.731-5.457c2.812,0,3.563,1.688,3.563,4.5v1.069H46.312z M49.558,15.269
	v-0.544c0-1.275-0.413-2.25-1.557-2.25c-1.294,0-1.688,1.274-1.688,2.588v0.206H49.558z M53.254,11.349h2.025v1.576h0.037
	c0.45-1.126,1.2-1.838,2.344-1.838c0.226,0,0.356,0.037,0.488,0.074v2.063c-0.15-0.038-0.507-0.112-0.845-0.112
	c-0.919,0-2.024,0.412-2.024,2.287v6.039h-2.025V11.349z M63.795,8.049h4.332c1.987,0,3.601,0.881,3.601,3.244
	c0,1.632-0.638,2.625-1.969,3.038v0.037c1.462,0.263,2.4,1.145,2.4,3.413c0,2.231-1.613,3.657-4.126,3.657h-4.238V8.049z
	 M67.62,13.693c1.294,0,1.97-0.862,1.97-2.119c0-1.594-0.957-1.913-2.157-1.913h-1.5v4.032H67.62z M68.052,19.825
	c1.275,0,1.969-0.825,1.969-2.362c0-1.444-0.862-2.27-2.1-2.27h-1.988v4.632H68.052z M80.356,19.338
	c0,0.375,0.226,0.713,0.525,0.713c0.131,0,0.263-0.019,0.338-0.057v1.312c-0.244,0.113-0.601,0.244-0.994,0.244
	c-0.9,0-1.65-0.356-1.707-1.331h-0.037c-0.544,0.993-1.331,1.481-2.513,1.481c-1.613,0-2.626-0.9-2.626-2.832
	c0-2.25,0.976-2.72,2.345-3.169l1.575-0.432c0.731-0.206,1.182-0.413,1.182-1.294c0-0.919-0.319-1.5-1.388-1.5
	c-1.351,0-1.538,0.956-1.538,1.932h-1.913c0-2.139,0.882-3.319,3.545-3.319c1.781,0,3.206,0.693,3.206,2.475V19.338z M78.444,16.112
	c-0.525,0.413-1.65,0.656-2.251,0.938c-0.581,0.281-0.825,0.882-0.825,1.632c0,0.844,0.413,1.519,1.257,1.519
	c1.219,0,1.819-0.919,1.819-2.4V16.112z M82.422,11.349h1.912v1.182h0.057c0.506-0.899,1.463-1.443,2.588-1.443
	c1.538,0,2.513,0.693,2.513,2.737v7.614h-2.025v-6.92c0-1.312-0.394-1.819-1.406-1.819c-0.825,0-1.612,0.656-1.612,1.969v6.771
	h-2.025V11.349z M91.444,8.049h2.024v7.52h0.038l3.057-4.22l2.344-0.019l-3.038,3.901l3.433,6.207h-2.213l-2.476-4.595l-1.145,1.388
	v3.207h-2.024V8.049z M104.762,8.049h7.145v1.8h-5.007v3.713h4.707v1.801h-4.707v6.076h-2.138V8.049z M116.672,11.087
	c2.944,0,3.77,2.175,3.77,5.307s-0.957,5.308-3.77,5.308c-2.794,0-3.751-2.176-3.751-5.308S113.746,11.087,116.672,11.087z
	 M116.672,20.2c1.481,0,1.744-1.237,1.744-3.807c0-2.231-0.263-3.807-1.744-3.807c-1.463,0-1.726,1.575-1.726,3.807
	C114.946,18.963,115.209,20.2,116.672,20.2z M122,11.349h2.025v1.576h0.037c0.45-1.126,1.2-1.838,2.344-1.838
	c0.226,0,0.356,0.037,0.488,0.074v2.063c-0.15-0.038-0.507-0.112-0.845-0.112c-0.919,0-2.024,0.412-2.024,2.287v6.039H122V11.349z
	 M183.9,8.049h2.738l3.525,13.39h-2.232l-0.824-3.282h-3.92l-0.863,3.282h-2.23L183.9,8.049z M186.75,16.45l-1.537-6.602h-0.037
	l-1.594,6.602H186.75z M195.324,14.293v-0.262c0-0.807-0.281-1.557-1.332-1.557c-0.807,0-1.443,0.375-1.443,1.312
	c0,0.787,0.355,1.106,1.424,1.481l1.295,0.45c1.5,0.506,2.193,1.312,2.193,2.906c0,2.157-1.574,3.076-3.619,3.076
	c-2.551,0-3.318-1.182-3.318-3.132v-0.375h1.799v0.318c0,1.163,0.414,1.801,1.576,1.801c1.105,0,1.65-0.563,1.65-1.481
	c0-0.751-0.395-1.238-1.107-1.482l-1.65-0.581c-1.518-0.525-2.156-1.294-2.156-2.906c0-1.895,1.369-2.775,3.451-2.775
	c2.568,0,3.15,1.5,3.15,2.756v0.45H195.324z M203.314,14.293v-0.262c0-0.807-0.281-1.557-1.332-1.557
	c-0.805,0-1.443,0.375-1.443,1.312c0,0.787,0.355,1.106,1.426,1.481l1.293,0.45c1.5,0.506,2.195,1.312,2.195,2.906
	c0,2.157-1.576,3.076-3.619,3.076c-2.551,0-3.32-1.182-3.32-3.132v-0.375h1.801v0.318c0,1.163,0.412,1.801,1.574,1.801
	c1.107,0,1.65-0.563,1.65-1.481c0-0.751-0.393-1.238-1.105-1.482l-1.65-0.581c-1.52-0.525-2.156-1.294-2.156-2.906
	c0-1.895,1.369-2.775,3.449-2.775c2.57,0,3.15,1.5,3.15,2.756v0.45H203.314z M210.312,11.087c2.943,0,3.77,2.175,3.77,5.307
	s-0.957,5.308-3.77,5.308c-2.795,0-3.752-2.176-3.752-5.308S207.387,11.087,210.312,11.087z M210.312,20.2
	c1.48,0,1.744-1.237,1.744-3.807c0-2.231-0.264-3.807-1.744-3.807c-1.463,0-1.727,1.575-1.727,3.807
	C208.586,18.963,208.85,20.2,210.312,20.2z M222.447,17.763c-0.131,2.419-0.957,3.938-3.451,3.938c-2.926,0-3.75-2.176-3.75-5.308
	s0.824-5.307,3.75-5.307c3.02-0.038,3.471,2.362,3.471,3.619h-2.025c0-0.938-0.264-2.157-1.445-2.119
	c-1.463,0-1.725,1.575-1.725,3.807s0.262,3.807,1.725,3.807c1.125,0.02,1.539-0.919,1.539-2.438H222.447z M224.062,7.898h2.025
	v2.025h-2.025V7.898z M224.062,11.349h2.025v10.09h-2.025V11.349z M234.752,19.338c0,0.375,0.225,0.713,0.525,0.713
	c0.131,0,0.262-0.019,0.338-0.057v1.312c-0.244,0.113-0.602,0.244-0.994,0.244c-0.9,0-1.65-0.356-1.707-1.331h-0.037
	c-0.545,0.993-1.332,1.481-2.514,1.481c-1.613,0-2.625-0.9-2.625-2.832c0-2.25,0.975-2.72,2.344-3.169l1.576-0.432
	c0.73-0.206,1.182-0.413,1.182-1.294c0-0.919-0.32-1.5-1.389-1.5c-1.35,0-1.537,0.956-1.537,1.932H228
	c0-2.139,0.883-3.319,3.545-3.319c1.781,0,3.207,0.693,3.207,2.475V19.338z M232.84,16.112c-0.525,0.413-1.65,0.656-2.252,0.938
	c-0.58,0.281-0.824,0.882-0.824,1.632c0,0.844,0.412,1.519,1.256,1.519c1.219,0,1.82-0.919,1.82-2.4V16.112z M235.916,11.349h1.389
	V8.479h2.025v2.869h1.65v1.501h-1.65v6.02c0,0.787,0.225,1.069,0.918,1.069c0.301,0,0.545-0.02,0.732-0.057v1.5
	c-0.432,0.112-0.994,0.169-1.633,0.169c-1.369,0-2.043-0.375-2.043-2.438V12.85h-1.389V11.349z M243.775,16.656v0.581
	c0,1.351,0.168,3.076,1.688,3.076c1.443,0,1.613-1.65,1.613-2.251h1.912c0,2.231-1.35,3.639-3.543,3.639
	c-1.65,0-3.695-0.488-3.695-5.157c0-2.645,0.562-5.457,3.732-5.457c2.812,0,3.562,1.688,3.562,4.5v1.069H243.775z M247.02,15.269
	v-0.544c0-1.275-0.412-2.25-1.557-2.25c-1.293,0-1.688,1.274-1.688,2.588v0.206H247.02z M255.066,14.293v-0.262
	c0-0.807-0.281-1.557-1.332-1.557c-0.805,0-1.443,0.375-1.443,1.312c0,0.787,0.355,1.106,1.426,1.481l1.293,0.45
	c1.5,0.506,2.195,1.312,2.195,2.906c0,2.157-1.576,3.076-3.619,3.076c-2.551,0-3.32-1.182-3.32-3.132v-0.375h1.801v0.318
	c0,1.163,0.412,1.801,1.574,1.801c1.107,0,1.65-0.563,1.65-1.481c0-0.751-0.393-1.238-1.105-1.482l-1.65-0.581
	c-1.52-0.525-2.156-1.294-2.156-2.906c0-1.895,1.369-2.775,3.449-2.775c2.57,0,3.15,1.5,3.15,2.756v0.45H255.066z M133.773,6.353
	c-0.533,0-0.756,0.223-0.756,0.579l0,0l0.088,13.672l0,0c0,0.668,0.223,0.713,0.803,0.713l0,0h1.469l0,0
	c0.4,0,0.445-0.134,0.445-0.49l0,0l-0.088-4.765l0,0c0-0.712,0.043-1.024,0.355-1.024c1.023,0,1.826,1.915,1.959,3.117
	c0.402,3.117,0.402,3.162,1.336,3.162l0,0h0.98l0,0c0.445,0,0.578-0.045,0.578-0.4c0-4.766-2.359-6.191-3.383-6.814
	c3.295-1.87,3.518-2.004,3.963-6.413c0.445-4.454,0.936-6.19,3.74-6.19c3.83,0,3.83,3.652,3.83,7.705
	c0,0.534,0.09,0.712,0.623,0.712l0,0h1.068l0,0c0.848,0,0.848,0,0.848-2.806c-0.09-1.38-0.312-2.539-0.668-3.429
	c-0.936-2.36-2.852-3.696-5.389-3.696c-3.43,0-5.479,2.004-6.234,5.255c-0.312,1.425-0.268,2.806-0.58,4.409
	c-0.268,1.425-1.246,3.295-2.627,3.295c-0.357,0-0.4-0.312-0.4-0.98l0,0V7.6l0,0c0-1.024-0.045-1.247-0.758-1.247l0,0H133.773
	L133.773,6.353z M161.424,11.521h-0.891c-0.535,0-0.668,0-1.023,0.267c-0.848-0.401-1.248-0.535-1.738-0.535
	c-1.914,0-3.385,2.405-3.385,5.745c0,2.85,1.293,4.409,3.029,4.409c0.623,0,1.068-0.134,1.826-0.49
	c0.178,0.979,0.223,1.247,0.223,2.227c0,4.187-0.625,6.77-3.475,6.77c-1.646,0-2.895-1.202-3.43-2.717
	c-0.221-0.668-0.311-1.158-0.355-2.271c-0.088-1.781-0.088-1.781-0.801-1.781h-1.293c-0.533,0-0.668,0.089-0.668,0.802
	c0,4.32,2.494,7.526,6.014,7.526c4.898,0,6.412-3.964,6.412-9.263v-7.482c0-2.761,0.178-2.227,0.178-2.895
	C162.047,11.565,161.959,11.521,161.424,11.521z M158.4,19.228c-0.891,0-1.424-1.024-1.424-2.583c0-2.36,0.623-3.429,1.469-3.429
	c0.891,0,0.98,0.801,0.98,1.736C159.426,18.693,159.381,19.228,158.4,19.228z M150.254,11.212c-1.604,0-2.451,0.802-3.475,2.182
	l-0.268-0.133V12.37c0-0.579-0.043-0.846-0.355-0.846c-0.58,0-1.203,0.267-1.736,0.579c-0.625-0.579-0.668-0.579-1.113-0.579h-0.713
	c-0.713,0-0.803,0.089-0.803,0.223l0.135,8.417c0,1.069,0,1.157,0.668,1.157h0.801c0.846,0,0.891-0.178,0.891-1.023v-3.028
	c0-3.028,0.312-3.207,2.271-3.474c-0.355,1.603-0.4,2.315-0.4,3.117c0,2.895,1.514,4.721,3.83,4.721
	c2.582,0,4.096-2.227,4.096-5.434C154.082,13.26,152.746,11.212,150.254,11.212z M150.113,19.452c-0.98,0-1.336-1.024-1.336-2.405
	c0-2.494,0.488-3.651,1.336-3.651c0.979,0,1.424,1.158,1.424,2.761C151.537,18.294,151.004,19.452,150.113,19.452z M169.709,17.27
	h-1.336c-1.113,0-0.49,2.094-1.916,2.094c-0.801,0-1.336-0.98-1.336-2.139c0-0.489,0.178-0.712,0.713-0.712h3.473
	c0.803,0,0.936-0.134,0.936-0.624c0-2.806-1.291-4.765-3.695-4.765c-2.494,0-4.053,2.494-4.053,5.21
	c0,2.851,1.291,5.166,4.008,5.166c1.691,0,3.74-1.604,3.74-3.74C170.242,17.358,170.109,17.27,169.709,17.27z M166.551,13.172
	c0.445,0,1.158,0.579,1.158,1.158c0,0.268-0.223,0.49-0.49,0.49h-1.246c-0.312,0-0.578-0.178-0.578-0.445
	C165.395,13.618,166.328,13.172,166.551,13.172z M171.445,11.519c-0.355,0-0.533,0.089-0.533,0.312l0,0L171,20.871l0,0
	c0,0.4,0.445,0.445,0.891,0.445l0,0h0.848l0,0c0.488,0,0.578-0.223,0.578-0.758l0,0v-3.473l0,0c0-1.604,0.268-2.316,0.445-2.673
	c0.668-1.247,1.871,0,1.871-1.469l0,0v-0.935l0,0c0-0.356-0.135-0.579-0.58-0.579c-0.355,0-0.49,0.089-1.736,0.757
	c-0.4-0.623-0.578-0.668-1.023-0.668l0,0H171.445L171.445,11.519z M164.133,22.033c-0.191-0.191-0.426-0.288-0.699-0.288
	c-0.271,0-0.504,0.097-0.695,0.288c-0.193,0.193-0.289,0.425-0.289,0.696c0,0.274,0.096,0.509,0.287,0.701
	c0.191,0.193,0.424,0.29,0.697,0.29s0.508-0.097,0.699-0.29c0.193-0.194,0.289-0.427,0.289-0.701
	C164.422,22.457,164.326,22.225,164.133,22.033L164.133,22.033L164.133,22.033L164.133,22.033z M164.037,22.13L164.037,22.13
	L164.037,22.13c-0.166-0.167-0.367-0.25-0.602-0.25s-0.434,0.083-0.6,0.25c-0.166,0.166-0.248,0.366-0.248,0.602
	c0,0.236,0.082,0.438,0.246,0.604c0.166,0.167,0.365,0.25,0.602,0.25s0.436-0.083,0.602-0.25c0.164-0.166,0.246-0.368,0.246-0.604
	C164.283,22.496,164.201,22.296,164.037,22.13L164.037,22.13z M162.928,22.195h0.631c0.189,0,0.352,0.104,0.352,0.308
	c0,0.111-0.051,0.229-0.16,0.27c0.09,0.034,0.145,0.134,0.158,0.269c0.004,0.053,0.006,0.18,0.035,0.229h-0.332
	c-0.016-0.054-0.021-0.109-0.025-0.165c-0.01-0.103-0.02-0.209-0.15-0.209h-0.176v0.374h-0.332V22.195z M163.26,22.666h0.174
	c0.061,0,0.145-0.011,0.145-0.107c0-0.068-0.037-0.107-0.164-0.107h-0.154V22.666z"></path>
</svg>