<?xml version="1.0" encoding="utf-8"?>
<!-- Generator: Adobe Illustrator 16.0.0, SVG Export Plug-In . SVG Version: 6.00 Build 0)  -->
<!DOCTYPE svg PUBLIC "-//W3C//DTD SVG 1.1//EN" "http://www.w3.org/Graphics/SVG/1.1/DTD/svg11.dtd">
<svg version="1.1" id="Layer_1" xmlns="http://www.w3.org/2000/svg" xmlns:xlink="http://www.w3.org/1999/xlink" x="0px" y="0px"
	 width="612px" height="792px" viewBox="0 0 612 792" enable-background="new 0 0 612 792" xml:space="preserve">
<title>white-ring</title>
<path fill="#59A9A1" d="M458.518,131.508C312.757,46.562,125.489,97.723,41.508,243.482
	c-83.981,145.761-33.786,333.028,112.94,417.975s333.029,33.786,417.009-112.939C598.486,502.183,612,449.092,612,396
	C612,285.956,554.082,185.564,458.518,131.508z M436.315,620.915c-124.523,71.432-282.833,28.959-354.265-95.564
	c-71.432-124.524-28.959-282.833,95.565-354.266c124.523-71.432,282.833-28.959,354.265,95.565
	c22.202,39.577,34.751,83.981,34.751,129.35C566.631,488.669,516.436,574.58,436.315,620.915L436.315,620.915z"/>
</svg>
