<svg xmlns="http://www.w3.org/2000/svg" xmlns:xlink="http://www.w3.org/1999/xlink" width="38" height="48" viewBox="0 0 38 48"><defs><path id="a" d="M0 34.806h31.027V.491H0z"/></defs><g fill="none" fill-rule="evenodd"><path fill="#F7981D" d="M22.345 3.075c.276-.276.579-.45.887-.56-1.2-.985-3.087-2.368-4.237-2.368-1.316 0-2.015.721-2.49 1.528 1.818.87 4.055 2.957 4.055 2.957s.893-.667 1.785-1.557m1.073 1.646c.522 1.8 3.534 1.003 3.534 1.003s.159 1.086-1.927 2.729c-1.358 1.066-6.103 2.02-7.025 3.54 0 0 3.886.492 6.519-.582.526-.215 2.52-2.888 4.256-4.255 2.087-1.64 1.927-2.727 1.927-2.727s-3.011.798-3.533-1.003c-.52-1.798-2.281-2.423-3.534-1.003-.347.394-.691.746-.985 1.032.335.305.61.725.768 1.266m8.418 13.03c-3.116-2.218-5.13-4.573-5.569-4.407-3.955 1.494-11.225.7-11.225.7-.236.449-.428.111-.76.438l1.534 3.13c.927 1.763.82 2.913 3.935 5.132 3.713 2.644 3.45 1.436 3.45 8.488s.893 7.946.674 9.697c-.166 1.33.202 5.372-2.902 6.662 10.406 0 14.821-4.341 15.757-7.802.876-3.235.676-3.774.676-9.696 0-7.052-1.856-9.697-5.57-12.342"/><path fill="#F9A61A" d="M12.35 11.093c3.663 1.324 6.731 1.14 11.166.626.926-1.884 2.595-3.21 4.418-4.493 2.187-1.544 2.021-2.565 2.021-2.565s-3.16.751-3.707-.942c-.546-1.689-2.393-2.277-3.706-.942-.926.942-1.854 1.648-1.854 1.648S16.982.895 15.13.895c-3.461 0-2.835 4.89-4.633 3.766-1.884-1.176-3.708-.942-3.708 0s1.2 1.93 2.456 3.275c.94 1.006 2.235 1.068 3.104 3.157"/><g transform="translate(.81 12.853)"><mask id="b" fill="#fff"><use xlink:href="#a"/></mask><path fill="#F9A61A" d="M15.768 26.587a4.025 4.025 0 0 1-1.376 1.414c-.558.34-1.15.55-1.777.625-.627.077-1.396.041-2.303-.106l-.005 2.105-1.615-.329.004-2.106c-1.083-.318-1.963-.672-2.637-1.065a7.065 7.065 0 0 1-1.746-1.42 6.866 6.866 0 0 1-1.131-1.697c-.265-.576-.462-1.25-.593-2.02l4.471.388c.13.762.309 1.329.534 1.7.224.374.594.74 1.11 1.097l.009-3.935c-1.49-.72-2.546-1.296-3.168-1.728-.623-.431-1.163-1.03-1.618-1.796-.455-.765-.683-1.631-.68-2.596.002-1.323.465-2.335 1.385-3.035.92-.7 2.288-.916 4.102-.643l.004-1.102 1.614.329-.003 1.103c1.653.44 2.916 1.09 3.788 1.953.871.86 1.44 1.912 1.703 3.154l-4.117-.182c-.205-.568-.391-.972-.557-1.21-.165-.238-.44-.5-.823-.787l-.007 3.223c2.24 1.058 3.737 1.999 4.487 2.82.995 1.102 1.49 2.345 1.486 3.726-.001.81-.181 1.516-.54 2.12zm15.26-10.121c0-7.314-4.068-10.518-5.172-11.405-2.88-2.316-5.75-3.63-5.75-3.63s-5.035.285-9.764-.94c-.352.577-2.28 2.27-5.171 4.57C1.724 7.804 0 10.546 0 17.86c0 7.313.466 8.226.466 10.055 0 1.828 5.826 6.892 17.893 6.892 12.167 0 12.667-8.304 12.667-16.947v-1.394z" mask="url(#b)"/></g><path fill="#F9A61A" d="M8.284 28.694c0 .257.11.496.33.715.222.22.606.43 1.158.633l.007-2.242c-.557.047-.946.147-1.166.299-.219.152-.327.35-.329.595m3 6.58l-.01 3.737c.772-.014 1.34-.161 1.7-.438.36-.276.54-.624.542-1.044.001-.367-.15-.73-.453-1.09-.304-.36-.896-.75-1.78-1.165"/></g></svg>